BakBak-Regular.ufo
<glyph name="exclam" format="2">
	<advance width="288"/>
	<unicode hex="0021"/>
	<note>
		exclam
	</note>
	<outline>
		<contour>
			<point x="100" y="178" type="line"/>
			<point x="188" y="178" type="line"/>
			<point x="218" y="396" type="line"/>
			<point x="218" y="642" type="line"/>
			<point x="70" y="642" type="line"/>
			<point x="70" y="396" type="line"/>
		</contour>
		<contour>
			<point x="214" y="103" type="curve"/>
			<point x="191" y="107"/>
			<point x="169" y="109"/>
			<point x="147" y="109" type="curve" smooth="yes"/>
			<point x="124" y="109"/>
			<point x="101" y="107"/>
			<point x="79" y="103" type="curve"/>
			<point x="76" y="83"/>
			<point x="75" y="67"/>
			<point x="75" y="54" type="curve" smooth="yes"/>
			<point x="75" y="39"/>
			<point x="76" y="24"/>
			<point x="79" y="6" type="curve"/>
			<point x="101" y="2"/>
			<point x="123" y="-1"/>
			<point x="145" y="-1" type="curve" smooth="yes"/>
			<point x="168" y="-1"/>
			<point x="190" y="2"/>
			<point x="214" y="6" type="curve"/>
			<point x="216" y="25"/>
			<point x="217" y="40"/>
			<point x="217" y="54" type="curve" smooth="yes"/>
			<point x="217" y="69"/>
			<point x="216" y="83"/>
		</contour>
	</outline>
</glyph>
<glyph name="T" format="2">
	<advance width="540"/>
	<unicode hex="0054"/>
	<outline>
		<contour>
			<point x="190" y="9" type="line"/>
			<point x="350" y="9" type="line"/>
			<point x="350" y="642" type="line"/>
			<point x="190" y="642" type="line"/>
		</contour>
		<contour>
			<point x="530" y="507" type="line"/>
			<point x="530" y="642" type="line"/>
			<point x="10" y="642" type="line"/>
			<point x="10" y="507" type="line"/>
		</contour>
	</outline>
</glyph>
<glyph name="W" format="2">
	<advance width="892"/>
	<unicode hex="0057"/>
	<outline>
		<contour>
			<point x="709" y="642" type="line"/>
			<point x="684" y="501"/>
			<point x="660" y="359"/>
			<point x="635" y="218" type="curve"/>
			<point x="633" y="218" type="line"/>
			<point x="603" y="359"/>
			<point x="573" y="501"/>
			<point x="543" y="642" type="curve"/>
			<point x="349" y="642" type="line"/>
			<point x="314" y="501"/>
			<point x="288" y="379"/>
			<point x="259" y="218" type="curve"/>
			<point x="257" y="218" type="line"/>
			<point x="232" y="379"/>
			<point x="212" y="501"/>
			<point x="183" y="642" type="curve"/>
			<point x="20" y="642" type="line"/>
			<point x="154" y="9" type="line"/>
			<point x="349" y="9" type="line"/>
			<point x="386" y="151"/>
			<point x="414" y="281"/>
			<point x="445" y="436" type="curve"/>
			<point x="447" y="436" type="line"/>
			<point x="473" y="281"/>
			<point x="502" y="151"/>
			<point x="543" y="9" type="curve"/>
			<point x="738" y="9" type="line"/>
			<point x="872" y="642" type="line"/>
		</contour>
	</outline>
</glyph>
<glyph name="underscore" format="2">
	<advance width="488"/>
	<unicode hex="005F"/>
	<note>
		underscore
	</note>
	<outline>
		<contour>
			<point x="10" y="-6" type="line"/>
			<point x="10" y="-136" type="line"/>
			<point x="478" y="-136" type="line"/>
			<point x="478" y="-6" type="line"/>
		</contour>
	</outline>
</glyph>
<glyph name="h" format="2">
	<advance width="592"/>
	<unicode hex="0068"/>
	<outline>
		<contour>
			<point x="373" y="501" type="curve" smooth="yes"/>
			<point x="291" y="501"/>
			<point x="242" y="467"/>
			<point x="223" y="407" type="curve"/>
			<point x="212" y="407" type="line"/>
			<point x="220" y="251" type="line"/>
			<point x="219" y="326"/>
			<point x="243" y="355"/>
			<point x="301" y="355" type="curve" smooth="yes"/>
			<point x="363" y="355"/>
			<point x="382" y="326"/>
			<point x="382" y="251" type="curve" smooth="yes"/>
			<point x="383" y="9" type="line"/>
			<point x="543" y="9" type="line"/>
			<point x="543" y="282" type="line" smooth="yes"/>
			<point x="543" y="453"/>
			<point x="489" y="501"/>
		</contour>
		<contour>
			<point x="220" y="9" type="line"/>
			<point x="220" y="407" type="line"/>
			<point x="220" y="681" type="line"/>
			<point x="60" y="681" type="line"/>
			<point x="60" y="9" type="line"/>
		</contour>
	</outline>
</glyph>
<glyph name="l" format="2">
	<advance width="280"/>
	<unicode hex="006C"/>
	<outline>
		<contour>
			<point x="220" y="9" type="line"/>
			<point x="220" y="682" type="line"/>
			<point x="60" y="682" type="line"/>
			<point x="60" y="9" type="line"/>
		</contour>
	</outline>
</glyph>
<glyph name="o" format="2">
	<advance width="550"/>
	<unicode hex="006F"/>
	<outline>
		<contour>
			<point x="25" y="249" type="curve" smooth="yes"/>
			<point x="25" y="73"/>
			<point x="94" y="0"/>
			<point x="275" y="0" type="curve" smooth="yes"/>
			<point x="457" y="0"/>
			<point x="525" y="73"/>
			<point x="525" y="249" type="curve" smooth="yes"/>
			<point x="525" y="427"/>
			<point x="457" y="501"/>
			<point x="275" y="501" type="curve" smooth="yes"/>
			<point x="94" y="501"/>
			<point x="25" y="427"/>
		</contour>
		<contour>
			<point x="275" y="137" type="curve" smooth="yes"/>
			<point x="200" y="137"/>
			<point x="176" y="166"/>
			<point x="176" y="252" type="curve" smooth="yes"/>
			<point x="176" y="333"/>
			<point x="200" y="366"/>
			<point x="275" y="366" type="curve" smooth="yes"/>
			<point x="352" y="366"/>
			<point x="374" y="333"/>
			<point x="374" y="252" type="curve" smooth="yes"/>
			<point x="374" y="166"/>
			<point x="352" y="137"/>
		</contour>
	</outline>
</glyph>
<glyph name="s" format="2">
	<advance width="509"/>
	<unicode hex="0073"/>
	<outline>
		<contour>
			<point x="38" y="147" type="curve"/>
			<point x="35" y="145" type="line"/>
			<point x="35" y="22" type="line"/>
			<point x="93" y="10"/>
			<point x="168" y="0"/>
			<point x="256" y="0" type="curve" smooth="yes"/>
			<point x="429" y="0"/>
			<point x="484" y="38"/>
			<point x="484" y="152" type="curve" smooth="yes"/>
			<point x="484" y="238"/>
			<point x="446" y="272"/>
			<point x="365" y="290" type="curve"/>
			<point x="292" y="304" type="line"/>
			<point x="205" y="320"/>
			<point x="198" y="325"/>
			<point x="198" y="345" type="curve" smooth="yes"/>
			<point x="198" y="370"/>
			<point x="219" y="377"/>
			<point x="282" y="377" type="curve" smooth="yes"/>
			<point x="346" y="377"/>
			<point x="403" y="369"/>
			<point x="459" y="351" type="curve"/>
			<point x="462" y="354" type="line"/>
			<point x="464" y="475" type="line"/>
			<point x="417" y="490"/>
			<point x="347" y="501"/>
			<point x="255" y="501" type="curve" smooth="yes"/>
			<point x="102" y="501"/>
			<point x="35" y="466"/>
			<point x="35" y="349" type="curve" smooth="yes"/>
			<point x="35" y="262"/>
			<point x="76" y="224"/>
			<point x="178" y="204" type="curve"/>
			<point x="257" y="189" type="line"/>
			<point x="306" y="179"/>
			<point x="319" y="180"/>
			<point x="319" y="157" type="curve" smooth="yes"/>
			<point x="319" y="132"/>
			<point x="303" y="125"/>
			<point x="211" y="125" type="curve" smooth="yes"/>
			<point x="146" y="125"/>
			<point x="91" y="132"/>
		</contour>
	</outline>
</glyph>
<glyph name="w" format="2">
	<advance width="740"/>
	<unicode hex="0077"/>
	<outline>
		<contour>
			<point x="368" y="272" type="curve"/>
			<point x="370" y="272" type="line"/>
			<point x="389" y="180"/>
			<point x="411" y="91"/>
			<point x="433" y="9" type="curve"/>
			<point x="606" y="9" type="line"/>
			<point x="730" y="496" type="line"/>
			<point x="562" y="496" type="line"/>
			<point x="543" y="396"/>
			<point x="524" y="285"/>
			<point x="509" y="181" type="curve"/>
			<point x="507" y="181" type="line"/>
			<point x="487" y="285"/>
			<point x="463" y="396"/>
			<point x="439" y="496" type="curve"/>
			<point x="299" y="496" type="line"/>
			<point x="275" y="396"/>
			<point x="251" y="285"/>
			<point x="231" y="181" type="curve"/>
			<point x="229" y="181" type="line"/>
			<point x="214" y="285"/>
			<point x="195" y="396"/>
			<point x="176" y="496" type="curve"/>
			<point x="10" y="496" type="line"/>
			<point x="134" y="9" type="line"/>
			<point x="307" y="9" type="line"/>
			<point x="329" y="91"/>
			<point x="349" y="180"/>
		</contour>
	</outline>
</glyph>
<glyph name="copyright" format="2">
	<advance width="1123"/>
	<unicode hex="00A9"/>
	<outline>
		<contour>
			<point x="65" y="356" type="curve" smooth="yes"/>
			<point x="65" y="8"/>
			<point x="184" y="-106"/>
			<point x="562" y="-106" type="curve" smooth="yes"/>
			<point x="940" y="-106"/>
			<point x="1058" y="8"/>
			<point x="1058" y="356" type="curve" smooth="yes"/>
			<point x="1058" y="702"/>
			<point x="940" y="817"/>
			<point x="562" y="817" type="curve" smooth="yes"/>
			<point x="184" y="817"/>
			<point x="65" y="702"/>
		</contour>
		<contour>
			<point x="562" y="24" type="curve" smooth="yes"/>
			<point x="268" y="24"/>
			<point x="210" y="96"/>
			<point x="210" y="356" type="curve" smooth="yes"/>
			<point x="210" y="617"/>
			<point x="268" y="687"/>
			<point x="562" y="687" type="curve" smooth="yes"/>
			<point x="870" y="687"/>
			<point x="924" y="617"/>
			<point x="923" y="356" type="curve" smooth="yes"/>
			<point x="922" y="96"/>
			<point x="870" y="24"/>
		</contour>
		<contour>
			<point x="739" y="125" type="curve"/>
			<point x="739" y="252" type="line"/>
			<point x="735" y="255" type="line"/>
			<point x="688" y="249"/>
			<point x="648" y="245"/>
			<point x="603" y="245" type="curve" smooth="yes"/>
			<point x="515" y="245"/>
			<point x="486" y="258"/>
			<point x="486" y="346" type="curve" smooth="yes"/>
			<point x="486" y="424"/>
			<point x="515" y="453"/>
			<point x="603" y="453" type="curve" smooth="yes"/>
			<point x="646" y="453"/>
			<point x="692" y="449"/>
			<point x="731" y="441" type="curve"/>
			<point x="734" y="443" type="line"/>
			<point x="733" y="575" type="line"/>
			<point x="693" y="587"/>
			<point x="621" y="596"/>
			<point x="563" y="596" type="curve" smooth="yes"/>
			<point x="418" y="596"/>
			<point x="332" y="541"/>
			<point x="333" y="348" type="curve" smooth="yes"/>
			<point x="334" y="160"/>
			<point x="409" y="105"/>
			<point x="564" y="105" type="curve" smooth="yes"/>
			<point x="636" y="105"/>
			<point x="706" y="112"/>
		</contour>
	</outline>
</glyph>
<glyph name="questiondown" format="2">
	<advance width="420"/>
	<unicode hex="00BF"/>
	<note>
		questiondown
	</note>
	<outline>
		<contour>
			<point x="159" y="348" type="curve"/>
			<point x="186" y="343"/>
			<point x="212" y="341"/>
			<point x="238" y="341" type="curve" smooth="yes"/>
			<point x="265" y="341"/>
			<point x="292" y="343"/>
			<point x="317" y="348" type="curve"/>
			<point x="321" y="371"/>
			<point x="322" y="390"/>
			<point x="322" y="405" type="curve" smooth="yes"/>
			<point x="322" y="423"/>
			<point x="321" y="441"/>
			<point x="317" y="462" type="curve"/>
			<point x="292" y="467"/>
			<point x="266" y="470"/>
			<point x="240" y="470" type="curve" smooth="yes"/>
			<point x="213" y="470"/>
			<point x="187" y="467"/>
			<point x="159" y="462" type="curve"/>
			<point x="157" y="440"/>
			<point x="156" y="422"/>
			<point x="156" y="405" type="curve" smooth="yes"/>
			<point x="156" y="388"/>
			<point x="157" y="371"/>
		</contour>
		<contour>
			<point x="421" y="-142" type="curve"/>
			<point x="421" y="-23" type="line"/>
			<point x="416" y="-22" type="line"/>
			<point x="375" y="-40"/>
			<point x="329" y="-50"/>
			<point x="280" y="-50" type="curve" smooth="yes"/>
			<point x="201" y="-50"/>
			<point x="172" y="-39"/>
			<point x="172" y="8" type="curve" smooth="yes"/>
			<point x="172" y="50"/>
			<point x="181" y="62"/>
			<point x="234" y="111" type="curve"/>
			<point x="260" y="135" type="line"/>
			<point x="315" y="182"/>
			<point x="315" y="200"/>
			<point x="315" y="266" type="curve" smooth="yes"/>
			<point x="315" y="294" type="line"/>
			<point x="164" y="294" type="line"/>
			<point x="164" y="256" type="line" smooth="yes"/>
			<point x="164" y="215"/>
			<point x="162" y="215"/>
			<point x="111" y="168" type="curve"/>
			<point x="80" y="140" type="line"/>
			<point x="36" y="96"/>
			<point x="29" y="60"/>
			<point x="29" y="0" type="curve" smooth="yes"/>
			<point x="29" y="-128"/>
			<point x="88" y="-177"/>
			<point x="251" y="-177" type="curve" smooth="yes"/>
			<point x="304" y="-177"/>
			<point x="371" y="-166"/>
		</contour>
	</outline>
</glyph>
<glyph name="Oslash" format="2">
	<advance width="683"/>
	<unicode hex="00D8"/>
	<outline>
		<contour>
			<point x="-10" y="9" type="line"/>
			<point x="-9" y="9" type="line"/>
			<point x="693" y="527" type="line"/>
			<point x="693" y="642" type="line"/>
			<point x="692" y="642" type="line"/>
			<point x="-10" y="124" type="line"/>
		</contour>
		<component base="O" xOffset="-9"/>
	</outline>
</glyph>
<glyph name="divide" format="2">
	<advance width="588"/>
	<unicode hex="00F7"/>
	<note>
		divide
	</note>
	<outline>
		<contour>
			<point x="385" y="187" type="curve"/>
			<point x="354" y="193"/>
			<point x="325" y="195"/>
			<point x="295" y="195" type="curve" smooth="yes"/>
			<point x="265" y="195"/>
			<point x="234" y="193"/>
			<point x="205" y="187" type="curve"/>
			<point x="201" y="161"/>
			<point x="199" y="140"/>
			<point x="199" y="122" type="curve" smooth="yes"/>
			<point x="199" y="102"/>
			<point x="201" y="82"/>
			<point x="205" y="58" type="curve"/>
			<point x="234" y="53"/>
			<point x="263" y="49"/>
			<point x="293" y="49" type="curve" smooth="yes"/>
			<point x="323" y="49"/>
			<point x="353" y="53"/>
			<point x="385" y="58" type="curve"/>
			<point x="387" y="84"/>
			<point x="389" y="104"/>
			<point x="389" y="122" type="curve" smooth="yes"/>
			<point x="389" y="142"/>
			<point x="387" y="161"/>
		</contour>
		<contour>
			<point x="381" y="601" type="curve"/>
			<point x="351" y="607"/>
			<point x="324" y="609"/>
			<point x="295" y="609" type="curve" smooth="yes"/>
			<point x="266" y="609"/>
			<point x="237" y="607"/>
			<point x="209" y="601" type="curve"/>
			<point x="205" y="576"/>
			<point x="204" y="555"/>
			<point x="204" y="539" type="curve" smooth="yes"/>
			<point x="204" y="520"/>
			<point x="205" y="501"/>
			<point x="209" y="478" type="curve"/>
			<point x="237" y="473"/>
			<point x="264" y="469"/>
			<point x="293" y="469" type="curve" smooth="yes"/>
			<point x="322" y="469"/>
			<point x="350" y="473"/>
			<point x="381" y="478" type="curve"/>
			<point x="383" y="502"/>
			<point x="384" y="521"/>
			<point x="384" y="539" type="curve" smooth="yes"/>
			<point x="384" y="558"/>
			<point x="383" y="576"/>
		</contour>
		<contour>
			<point x="40" y="270" type="line"/>
			<point x="548" y="270" type="line"/>
			<point x="548" y="394" type="line"/>
			<point x="40" y="394" type="line"/>
		</contour>
	</outline>
</glyph>
<glyph name="uni0123" format="2">
	<advance width="568"/>
	<unicode hex="0123"/>
	<outline>
		<contour>
			<point x="320" y="726" type="curve"/>
			<point x="321" y="727" type="line"/>
			<point x="321" y="779" type="line"/>
			<point x="314" y="780"/>
			<point x="308" y="781"/>
			<point x="301" y="781" type="curve" smooth="yes"/>
			<point x="231" y="781"/>
			<point x="191" y="750"/>
			<point x="191" y="656" type="curve" smooth="yes"/>
			<point x="191" y="585"/>
			<point x="218" y="545"/>
			<point x="285" y="545" type="curve" smooth="yes"/>
			<point x="351" y="545"/>
			<point x="372" y="572"/>
			<point x="372" y="620" type="curve" smooth="yes"/>
			<point x="372" y="665"/>
			<point x="346" y="690"/>
			<point x="297" y="690" type="curve" smooth="yes"/>
			<point x="276" y="690"/>
			<point x="260" y="687"/>
			<point x="250" y="681" type="curve"/>
			<point x="249" y="682" type="line"/>
			<point x="249" y="716"/>
			<point x="269" y="727"/>
			<point x="307" y="727" type="curve" smooth="yes"/>
			<point x="312" y="727"/>
			<point x="315" y="727"/>
		</contour>
		<component base="g"/>
	</outline>
</glyph>
<glyph name="napostrophe" format="2">
	<advance width="753"/>
	<unicode hex="0149"/>
	<outline>
		<contour>
			<point x="72" y="555" type="curve"/>
			<point x="71" y="554" type="line"/>
			<point x="71" y="502" type="line"/>
			<point x="78" y="501"/>
			<point x="84" y="500"/>
			<point x="91" y="500" type="curve" smooth="yes"/>
			<point x="161" y="500"/>
			<point x="201" y="531"/>
			<point x="201" y="625" type="curve" smooth="yes"/>
			<point x="201" y="696"/>
			<point x="174" y="736"/>
			<point x="107" y="736" type="curve" smooth="yes"/>
			<point x="41" y="736"/>
			<point x="20" y="709"/>
			<point x="20" y="661" type="curve" smooth="yes"/>
			<point x="20" y="616"/>
			<point x="46" y="591"/>
			<point x="95" y="591" type="curve" smooth="yes"/>
			<point x="116" y="591"/>
			<point x="132" y="594"/>
			<point x="142" y="600" type="curve"/>
			<point x="143" y="599" type="line"/>
			<point x="143" y="565"/>
			<point x="123" y="554"/>
			<point x="85" y="554" type="curve" smooth="yes"/>
			<point x="80" y="554"/>
			<point x="77" y="554"/>
		</contour>
		<component base="n" xOffset="160"/>
	</outline>
</glyph>
<glyph name="uni02BC" format="2">
	<advance width="201"/>
	<unicode hex="02BC"/>
	<outline>
		<contour>
			<point x="62" y="557" type="curve"/>
			<point x="61" y="556" type="line"/>
			<point x="61" y="502" type="line"/>
			<point x="69" y="501"/>
			<point x="75" y="500"/>
			<point x="82" y="500" type="curve" smooth="yes"/>
			<point x="155" y="500"/>
			<point x="197" y="531"/>
			<point x="197" y="629" type="curve" smooth="yes"/>
			<point x="197" y="704"/>
			<point x="169" y="745"/>
			<point x="99" y="745" type="curve" smooth="yes"/>
			<point x="31" y="745"/>
			<point x="8" y="718"/>
			<point x="8" y="668" type="curve" smooth="yes"/>
			<point x="8" y="620"/>
			<point x="35" y="594"/>
			<point x="86" y="594" type="curve" smooth="yes"/>
			<point x="108" y="594"/>
			<point x="125" y="598"/>
			<point x="135" y="604" type="curve"/>
			<point x="136" y="603" type="line"/>
			<point x="136" y="568"/>
			<point x="116" y="556"/>
			<point x="76" y="556" type="curve" smooth="yes"/>
			<point x="71" y="556"/>
			<point x="68" y="556"/>
		</contour>
	</outline>
</glyph>
<glyph name="dvU" format="2">
	<advance width="444"/>
	<unicode hex="0909"/>
	<anchor x="328" y="607" name="abvm.bindu"/>
	<outline>
		<contour>
			<point x="-70" y="500" type="line"/>
			<point x="-70" y="607" type="line"/>
			<point x="484" y="607" type="line"/>
			<point x="484" y="500" type="line"/>
		</contour>
		<contour>
			<point x="154" y="500" type="curve"/>
			<point x="154" y="603" type="line"/>
			<point x="342" y="502" type="line"/>
			<point x="342" y="498" type="line"/>
			<point x="369" y="482"/>
			<point x="382" y="455"/>
			<point x="382" y="406" type="curve" smooth="yes"/>
			<point x="382" y="351"/>
			<point x="355" y="321"/>
			<point x="289" y="312" type="curve"/>
			<point x="289" y="307" type="line"/>
			<point x="372" y="302"/>
			<point x="408" y="254"/>
			<point x="408" y="154" type="curve" smooth="yes"/>
			<point x="408" y="58"/>
			<point x="347" y="0"/>
			<point x="221" y="0" type="curve" smooth="yes"/>
			<point x="130" y="0"/>
			<point x="73" y="9"/>
			<point x="20" y="26" type="curve"/>
			<point x="20" y="148" type="line"/>
			<point x="24" y="148" type="line"/>
			<point x="66" y="134"/>
			<point x="116" y="124"/>
			<point x="176" y="124" type="curve" smooth="yes"/>
			<point x="253" y="124"/>
			<point x="268" y="143"/>
			<point x="268" y="186" type="curve" smooth="yes"/>
			<point x="268" y="229"/>
			<point x="255" y="248"/>
			<point x="184" y="248" type="curve" smooth="yes"/>
			<point x="112" y="248" type="line"/>
			<point x="112" y="371" type="line"/>
			<point x="174" y="371" type="line" smooth="yes"/>
			<point x="215" y="371"/>
			<point x="238" y="387"/>
			<point x="238" y="437" type="curve" smooth="yes"/>
			<point x="238" y="487"/>
			<point x="217" y="500"/>
		</contour>
	</outline>
</glyph>
<glyph name="dvvR" format="2">
	<advance width="920"/>
	<unicode hex="090B"/>
	<anchor x="520" y="607" name="abvm.bindu"/>
	<anchor x="523" y="607" name="abvm.e"/>
	<outline>
		<contour>
			<point x="1" y="12" type="curve"/>
			<point x="1" y="7" type="line"/>
			<point x="214" y="7" type="line"/>
			<point x="368" y="125" type="line"/>
			<point x="375" y="125" type="line"/>
			<point x="375" y="254" type="line"/>
			<point x="265" y="198"/>
			<point x="101" y="88"/>
		</contour>
		<contour>
			<point x="33" y="213" type="curve"/>
			<point x="181" y="213" type="line"/>
			<point x="181" y="266"/>
			<point x="207" y="279"/>
			<point x="286" y="279" type="curve" smooth="yes"/>
			<point x="335" y="279"/>
			<point x="370" y="268"/>
			<point x="386" y="239" type="curve"/>
			<point x="386" y="366" type="line"/>
			<point x="370" y="388"/>
			<point x="300" y="407"/>
			<point x="223" y="407" type="curve" smooth="yes"/>
			<point x="90" y="407"/>
			<point x="33" y="370"/>
		</contour>
		<contour>
			<point x="372" y="9" type="line"/>
			<point x="520" y="9" type="line"/>
			<point x="520" y="501" type="line"/>
			<point x="372" y="501" type="line"/>
		</contour>
		<contour>
			<point x="-8" y="500" type="line"/>
			<point x="930" y="500" type="line"/>
			<point x="930" y="607" type="line"/>
			<point x="-8" y="607" type="line"/>
		</contour>
		<contour>
			<point x="737" y="201" type="line"/>
			<point x="873" y="201" type="line"/>
			<point x="873" y="420" type="line"/>
			<point x="732" y="420" type="line"/>
			<point x="732" y="403" type="line" smooth="yes"/>
			<point x="732" y="379"/>
			<point x="726" y="375"/>
			<point x="693" y="375" type="curve" smooth="yes"/>
			<point x="418" y="375" type="line"/>
			<point x="418" y="250" type="line"/>
			<point x="664" y="250" type="line" smooth="yes"/>
			<point x="698" y="250"/>
			<point x="721" y="253"/>
			<point x="735" y="260" type="curve"/>
			<point x="737" y="259" type="line"/>
		</contour>
		<contour>
			<point x="873" y="-51" type="curve"/>
			<point x="873" y="43" type="line"/>
			<point x="870" y="45" type="line"/>
			<point x="843" y="39"/>
			<point x="813" y="36"/>
			<point x="785" y="36" type="curve" smooth="yes"/>
			<point x="732" y="36"/>
			<point x="712" y="42"/>
			<point x="712" y="73" type="curve" smooth="yes"/>
			<point x="712" y="103"/>
			<point x="730" y="110"/>
			<point x="766" y="110" type="curve" smooth="yes"/>
			<point x="873" y="110" type="line"/>
			<point x="873" y="206" type="line"/>
			<point x="783" y="206" type="line" smooth="yes"/>
			<point x="647" y="206"/>
			<point x="593" y="173"/>
			<point x="593" y="72" type="curve" smooth="yes"/>
			<point x="593" y="-32"/>
			<point x="647" y="-61"/>
			<point x="783" y="-61" type="curve" smooth="yes"/>
			<point x="813" y="-61"/>
			<point x="845" y="-58"/>
		</contour>
	</outline>
</glyph>
<glyph name="dvvL" format="2">
	<advance width="799"/>
	<unicode hex="090C"/>
	<outline>
		<contour>
			<point x="94" y="9" type="curve"/>
			<point x="236" y="9" type="line"/>
			<point x="236" y="14" type="line"/>
			<point x="197" y="79"/>
			<point x="181" y="138"/>
			<point x="181" y="203" type="curve" smooth="yes"/>
			<point x="181" y="270"/>
			<point x="200" y="294"/>
			<point x="252" y="294" type="curve" smooth="yes"/>
			<point x="299" y="294"/>
			<point x="320" y="274"/>
			<point x="320" y="193" type="curve" smooth="yes"/>
			<point x="320" y="146" type="line"/>
			<point x="452" y="146" type="line"/>
			<point x="452" y="193" type="line" smooth="yes"/>
			<point x="452" y="277"/>
			<point x="469" y="294"/>
			<point x="520" y="294" type="curve" smooth="yes"/>
			<point x="567" y="294"/>
			<point x="586" y="277"/>
			<point x="586" y="193" type="curve"/>
			<point x="706" y="193" type="line"/>
			<point x="704" y="317"/>
			<point x="704" y="333"/>
			<point x="635" y="358" type="curve"/>
			<point x="631" y="374"/>
			<point x="599" y="393"/>
			<point x="585" y="395" type="curve"/>
			<point x="583" y="393" type="line"/>
			<point x="568" y="410"/>
			<point x="543" y="419"/>
			<point x="512" y="419" type="curve" smooth="yes"/>
			<point x="426" y="419"/>
			<point x="392" y="383"/>
			<point x="382" y="326" type="curve"/>
			<point x="379" y="326" type="line"/>
			<point x="370" y="383"/>
			<point x="323" y="420"/>
			<point x="218" y="420" type="curve" smooth="yes"/>
			<point x="97" y="420"/>
			<point x="33" y="366"/>
			<point x="33" y="236" type="curve" smooth="yes"/>
			<point x="33" y="159"/>
			<point x="55" y="81"/>
		</contour>
		<contour>
			<point x="-10" y="500" type="line"/>
			<point x="834" y="500" type="line"/>
			<point x="834" y="607" type="line"/>
			<point x="-10" y="607" type="line"/>
		</contour>
		<contour>
			<point x="585" y="99" type="line"/>
			<point x="733" y="99" type="line"/>
			<point x="733" y="501" type="line"/>
			<point x="585" y="501" type="line"/>
		</contour>
		<contour>
			<point x="733" y="-101" type="curve"/>
			<point x="733" y="-7" type="line"/>
			<point x="730" y="-5" type="line"/>
			<point x="703" y="-11"/>
			<point x="673" y="-14"/>
			<point x="645" y="-14" type="curve" smooth="yes"/>
			<point x="592" y="-14"/>
			<point x="572" y="-8"/>
			<point x="572" y="23" type="curve" smooth="yes"/>
			<point x="572" y="53"/>
			<point x="590" y="60"/>
			<point x="626" y="60" type="curve" smooth="yes"/>
			<point x="733" y="60" type="line"/>
			<point x="733" y="156" type="line"/>
			<point x="643" y="156" type="line" smooth="yes"/>
			<point x="507" y="156"/>
			<point x="453" y="126"/>
			<point x="453" y="22" type="curve" smooth="yes"/>
			<point x="453" y="-82"/>
			<point x="507" y="-111"/>
			<point x="643" y="-111" type="curve" smooth="yes"/>
			<point x="673" y="-111"/>
			<point x="705" y="-108"/>
		</contour>
	</outline>
</glyph>
<glyph name="dvNGA" format="2">
	<advance width="668"/>
	<unicode hex="0919"/>
	<anchor x="190" y="-61" name="blwm.virama"/>
	<anchor x="467" y="607" name="abvm.bindu"/>
	<anchor x="280" y="-91" name="blwm.u"/>
	<anchor x="465" y="607" name="abvm.e"/>
	<outline>
		<contour>
			<point x="349" y="344" type="line"/>
			<point x="349" y="501" type="line"/>
			<point x="467" y="501" type="line"/>
			<point x="467" y="344" type="line"/>
		</contour>
		<contour>
			<point x="-30" y="500" type="line"/>
			<point x="-30" y="607" type="line"/>
			<point x="695" y="607" type="line"/>
			<point x="695" y="500" type="line"/>
		</contour>
		<contour>
			<point x="39" y="19" type="curve"/>
			<point x="39" y="132" type="line"/>
			<point x="44" y="135" type="line"/>
			<point x="102" y="120"/>
			<point x="165" y="113"/>
			<point x="241" y="113" type="curve" smooth="yes"/>
			<point x="338" y="113"/>
			<point x="355" y="119"/>
			<point x="355" y="149" type="curve" smooth="yes"/>
			<point x="355" y="176"/>
			<point x="347" y="185"/>
			<point x="261" y="185" type="curve" smooth="yes"/>
			<point x="220" y="185" type="line" smooth="yes"/>
			<point x="89" y="185"/>
			<point x="46" y="223"/>
			<point x="46" y="314" type="curve" smooth="yes"/>
			<point x="46" y="412"/>
			<point x="98" y="447"/>
			<point x="219" y="447" type="curve" smooth="yes"/>
			<point x="467" y="447" type="line"/>
			<point x="467" y="341" type="line"/>
			<point x="237" y="341" type="line" smooth="yes"/>
			<point x="196" y="341"/>
			<point x="187" y="335"/>
			<point x="187" y="311" type="curve" smooth="yes"/>
			<point x="187" y="289"/>
			<point x="196" y="281"/>
			<point x="237" y="281" type="curve" smooth="yes"/>
			<point x="288" y="281" type="line" smooth="yes"/>
			<point x="452" y="281"/>
			<point x="496" y="251"/>
			<point x="496" y="145" type="curve" smooth="yes"/>
			<point x="496" y="31"/>
			<point x="427" y="-1"/>
			<point x="271" y="-1" type="curve" smooth="yes"/>
			<point x="176" y="-1"/>
			<point x="92" y="8"/>
		</contour>
		<component base="dvAnusvara" xScale="0.95" yScale="0.95" xOffset="711" yOffset="-448"/>
	</outline>
</glyph>
<glyph name="dvTA" format="2">
	<advance width="588"/>
	<unicode hex="0924"/>
	<outline>
		<contour>
			<point x="-15" y="500" type="line"/>
			<point x="-15" y="607" type="line"/>
			<point x="628" y="607" type="line"/>
			<point x="628" y="500" type="line"/>
		</contour>
		<contour>
			<point x="380" y="9" type="line"/>
			<point x="380" y="501" type="line"/>
			<point x="528" y="501" type="line"/>
			<point x="528" y="9" type="line"/>
		</contour>
		<contour>
			<point x="237" y="412" type="curve" smooth="yes"/>
			<point x="289" y="412"/>
			<point x="343" y="404"/>
			<point x="378" y="389" type="curve"/>
			<point x="384" y="392" type="line"/>
			<point x="386" y="268" type="line"/>
			<point x="380" y="267" type="line"/>
			<point x="354" y="279"/>
			<point x="312" y="287"/>
			<point x="275" y="287" type="curve" smooth="yes"/>
			<point x="215" y="287"/>
			<point x="187" y="269"/>
			<point x="187" y="221" type="curve" smooth="yes"/>
			<point x="187" y="166"/>
			<point x="209" y="86"/>
			<point x="242" y="9" type="curve"/>
			<point x="242" y="6" type="line"/>
			<point x="98" y="6" type="line"/>
			<point x="61" y="96"/>
			<point x="39" y="177"/>
			<point x="39" y="264" type="curve" smooth="yes"/>
			<point x="39" y="378"/>
			<point x="111" y="412"/>
		</contour>
	</outline>
</glyph>
<glyph name="dvNukta" format="2">
	<advance width="0"/>
	<unicode hex="093C"/>
	<outline>
		<contour>
			<point x="76" y="-59" type="curve"/>
			<point x="78" y="-81"/>
			<point x="79" y="-96"/>
			<point x="79" y="-112" type="curve" smooth="yes"/>
			<point x="79" y="-128"/>
			<point x="78" y="-144"/>
			<point x="76" y="-165" type="curve"/>
			<point x="50" y="-170"/>
			<point x="25" y="-173"/>
			<point x="0" y="-173" type="curve" smooth="yes"/>
			<point x="-24" y="-173"/>
			<point x="-48" y="-170"/>
			<point x="-73" y="-165" type="curve"/>
			<point x="-76" y="-145"/>
			<point x="-77" y="-129"/>
			<point x="-77" y="-113" type="curve" smooth="yes"/>
			<point x="-77" y="-98"/>
			<point x="-76" y="-81"/>
			<point x="-73" y="-59" type="curve"/>
			<point x="-48" y="-54"/>
			<point x="-23" y="-52"/>
			<point x="2" y="-52" type="curve" smooth="yes"/>
			<point x="26" y="-52"/>
			<point x="51" y="-54"/>
		</contour>
	</outline>
</glyph>
<glyph name="dvAvagraha" format="2">
	<advance width="511"/>
	<unicode hex="093D"/>
	<outline>
		<contour>
			<point x="248" y="2" type="curve" smooth="yes"/>
			<point x="422" y="2"/>
			<point x="476" y="53"/>
			<point x="476" y="155" type="curve" smooth="yes"/>
			<point x="476" y="235"/>
			<point x="439" y="280"/>
			<point x="380" y="317" type="curve" smooth="yes"/>
			<point x="249" y="399" type="line" smooth="yes"/>
			<point x="209" y="424"/>
			<point x="195" y="440"/>
			<point x="195" y="464" type="curve" smooth="yes"/>
			<point x="195" y="490"/>
			<point x="208" y="500"/>
			<point x="247" y="500" type="curve" smooth="yes"/>
			<point x="462" y="500" type="line"/>
			<point x="462" y="607" type="line"/>
			<point x="248" y="607" type="line" smooth="yes"/>
			<point x="95" y="607"/>
			<point x="47" y="570"/>
			<point x="47" y="467" type="curve" smooth="yes"/>
			<point x="47" y="402"/>
			<point x="80" y="353"/>
			<point x="136" y="318" type="curve" smooth="yes"/>
			<point x="236" y="256" type="line" smooth="yes"/>
			<point x="284" y="226"/>
			<point x="327" y="206"/>
			<point x="327" y="175" type="curve" smooth="yes"/>
			<point x="327" y="133"/>
			<point x="308" y="119"/>
			<point x="248" y="119" type="curve" smooth="yes"/>
			<point x="182" y="119"/>
			<point x="168" y="133"/>
			<point x="168" y="175" type="curve" smooth="yes"/>
			<point x="168" y="199" type="line"/>
			<point x="20" y="199" type="line"/>
			<point x="20" y="155" type="line" smooth="yes"/>
			<point x="20" y="46"/>
			<point x="78" y="2"/>
		</contour>
	</outline>
</glyph>
<glyph name="dvvLL" format="2">
	<advance width="793"/>
	<unicode hex="0961"/>
	<outline>
		<contour>
			<point x="-10" y="500" type="line"/>
			<point x="833" y="500" type="line"/>
			<point x="833" y="607" type="line"/>
			<point x="-10" y="607" type="line"/>
		</contour>
		<contour>
			<point x="585" y="149" type="line"/>
			<point x="733" y="149" type="line"/>
			<point x="733" y="501" type="line"/>
			<point x="585" y="501" type="line"/>
		</contour>
		<contour>
			<point x="94" y="9" type="curve"/>
			<point x="236" y="9" type="line"/>
			<point x="236" y="14" type="line"/>
			<point x="197" y="79"/>
			<point x="181" y="138"/>
			<point x="181" y="203" type="curve" smooth="yes"/>
			<point x="181" y="270"/>
			<point x="200" y="294"/>
			<point x="252" y="294" type="curve" smooth="yes"/>
			<point x="299" y="294"/>
			<point x="320" y="274"/>
			<point x="320" y="193" type="curve" smooth="yes"/>
			<point x="320" y="156" type="line"/>
			<point x="452" y="156" type="line"/>
			<point x="452" y="193" type="line" smooth="yes"/>
			<point x="452" y="277"/>
			<point x="469" y="294"/>
			<point x="520" y="294" type="curve" smooth="yes"/>
			<point x="567" y="294"/>
			<point x="586" y="277"/>
			<point x="586" y="193" type="curve"/>
			<point x="706" y="193" type="line"/>
			<point x="704" y="317"/>
			<point x="704" y="333"/>
			<point x="635" y="358" type="curve"/>
			<point x="631" y="374"/>
			<point x="599" y="393"/>
			<point x="585" y="395" type="curve"/>
			<point x="583" y="393" type="line"/>
			<point x="568" y="410"/>
			<point x="543" y="419"/>
			<point x="512" y="419" type="curve" smooth="yes"/>
			<point x="426" y="419"/>
			<point x="392" y="383"/>
			<point x="382" y="326" type="curve"/>
			<point x="379" y="326" type="line"/>
			<point x="370" y="383"/>
			<point x="323" y="420"/>
			<point x="218" y="420" type="curve" smooth="yes"/>
			<point x="97" y="420"/>
			<point x="33" y="366"/>
			<point x="33" y="236" type="curve" smooth="yes"/>
			<point x="33" y="159"/>
			<point x="55" y="81"/>
		</contour>
		<contour>
			<point x="473" y="-144" type="curve" smooth="yes"/>
			<point x="473" y="-248"/>
			<point x="527" y="-277"/>
			<point x="663" y="-277" type="curve" smooth="yes"/>
			<point x="693" y="-277"/>
			<point x="725" y="-274"/>
			<point x="753" y="-267" type="curve"/>
			<point x="753" y="-173" type="line"/>
			<point x="750" y="-171" type="line"/>
			<point x="723" y="-177"/>
			<point x="693" y="-180"/>
			<point x="665" y="-180" type="curve" smooth="yes"/>
			<point x="612" y="-180"/>
			<point x="592" y="-174"/>
			<point x="592" y="-138" type="curve" smooth="yes"/>
			<point x="592" y="-108"/>
			<point x="605" y="-98"/>
			<point x="632" y="-97" type="curve"/>
			<point x="657" y="-97" type="line"/>
			<point x="713" y="-97" type="line"/>
			<point x="713" y="-10" type="line"/>
			<point x="663" y="-10" type="line"/>
			<point x="657" y="-10" type="line" smooth="yes"/>
			<point x="610" y="-10"/>
			<point x="592" y="-6"/>
			<point x="592" y="33" type="curve" smooth="yes"/>
			<point x="592" y="63"/>
			<point x="610" y="74"/>
			<point x="646" y="74" type="curve" smooth="yes"/>
			<point x="733" y="74" type="line"/>
			<point x="733" y="160" type="line"/>
			<point x="663" y="160" type="line" smooth="yes"/>
			<point x="527" y="160"/>
			<point x="473" y="130"/>
			<point x="473" y="26" type="curve" smooth="yes"/>
			<point x="473" y="-14"/>
			<point x="489" y="-39"/>
			<point x="519" y="-58" type="curve"/>
			<point x="519" y="-60" type="line"/>
			<point x="490" y="-80"/>
			<point x="473" y="-104"/>
		</contour>
	</outline>
</glyph>
<glyph name="partialdiff" format="2">
	<advance width="550"/>
	<unicode hex="2202"/>
	<outline>
		<contour>
			<point x="535" y="248" type="curve" smooth="yes"/>
			<point x="529" y="409"/>
			<point x="456" y="555"/>
			<point x="375" y="652" type="curve"/>
			<point x="231" y="652" type="line"/>
			<point x="304" y="558"/>
			<point x="353" y="468"/>
			<point x="380" y="371" type="curve"/>
			<point x="378" y="370" type="line"/>
			<point x="360" y="388"/>
			<point x="322" y="405"/>
			<point x="257" y="405" type="curve" smooth="yes"/>
			<point x="136" y="405"/>
			<point x="65" y="347"/>
			<point x="65" y="209" type="curve" smooth="yes"/>
			<point x="65" y="73"/>
			<point x="134" y="0"/>
			<point x="305" y="0" type="curve" smooth="yes"/>
			<point x="486" y="0"/>
			<point x="540" y="108"/>
		</contour>
		<contour>
			<point x="305" y="137" type="curve" smooth="yes"/>
			<point x="240" y="137"/>
			<point x="216" y="166"/>
			<point x="216" y="212" type="curve" smooth="yes"/>
			<point x="216" y="258"/>
			<point x="240" y="286"/>
			<point x="305" y="286" type="curve" smooth="yes"/>
			<point x="368" y="286"/>
			<point x="394" y="258"/>
			<point x="394" y="212" type="curve" smooth="yes"/>
			<point x="394" y="166"/>
			<point x="368" y="137"/>
		</contour>
	</outline>
</glyph>
<glyph name="summation" format="2">
	<advance width="712"/>
	<unicode hex="2211"/>
	<outline>
		<contour>
			<point x="70" y="789" type="line"/>
			<point x="70" y="699" type="line"/>
			<point x="155" y="669" type="line"/>
			<point x="652" y="669" type="line"/>
			<point x="652" y="789" type="line"/>
		</contour>
		<contour>
			<point x="529" y="329" type="line"/>
			<point x="248" y="669" type="line"/>
			<point x="70" y="699" type="line"/>
			<point x="368" y="327" type="line"/>
			<point x="368" y="325" type="line"/>
			<point x="70" y="-43" type="line"/>
			<point x="245" y="-13" type="line"/>
			<point x="529" y="327" type="line"/>
		</contour>
		<contour>
			<point x="162" y="-13" type="line"/>
			<point x="70" y="-43" type="line"/>
			<point x="70" y="-133" type="line"/>
			<point x="662" y="-133" type="line"/>
			<point x="662" y="-13" type="line"/>
		</contour>
	</outline>
</glyph>
<glyph name="dvBH_R" format="2">
	<advance width="412"/>
	<outline>
		<contour>
			<point x="142" y="134" type="curve" smooth="yes"/>
			<point x="234" y="134"/>
			<point x="252" y="149"/>
			<point x="252" y="236" type="curve" smooth="yes"/>
			<point x="252" y="422" type="line" smooth="yes"/>
			<point x="252" y="558"/>
			<point x="215" y="607"/>
			<point x="90" y="607" type="curve" smooth="yes"/>
			<point x="-70" y="607" type="line"/>
			<point x="-70" y="500" type="line"/>
			<point x="53" y="500" type="line" smooth="yes"/>
			<point x="96" y="500"/>
			<point x="104" y="482"/>
			<point x="104" y="433" type="curve" smooth="yes"/>
			<point x="104" y="320" type="line"/>
			<point x="44" y="320"/>
			<point x="23" y="302"/>
			<point x="23" y="227" type="curve" smooth="yes"/>
			<point x="23" y="153"/>
			<point x="45" y="134"/>
		</contour>
		<contour>
			<point x="160" y="208" type="line"/>
			<point x="510" y="208" type="line"/>
			<point x="510" y="320" type="line"/>
			<point x="160" y="320" type="line"/>
		</contour>
		<contour>
			<point x="510" y="208" type="line"/>
			<point x="510" y="226" type="line"/>
			<point x="428" y="256" type="line"/>
			<point x="375" y="214" type="line"/>
			<point x="375" y="206" type="line"/>
			<point x="318" y="152"/>
			<point x="238" y="65"/>
			<point x="198" y="1" type="curve"/>
			<point x="198" y="-3" type="line"/>
			<point x="364" y="-3" type="line"/>
		</contour>
	</outline>
</glyph>
<glyph name="dvBH_RA" format="2">
	<advance width="636"/>
	<outline>
		<contour>
			<point x="437" y="9" type="line"/>
			<point x="437" y="214" type="line"/>
			<point x="427" y="225" type="line"/>
			<point x="427" y="501" type="line"/>
			<point x="576" y="501" type="line"/>
			<point x="576" y="9" type="line"/>
		</contour>
		<contour>
			<point x="427" y="500" type="line"/>
			<point x="427" y="607" type="line"/>
			<point x="676" y="607" type="line"/>
			<point x="676" y="500" type="line"/>
		</contour>
		<contour>
			<point x="159" y="208" type="line"/>
			<point x="159" y="320" type="line"/>
			<point x="532" y="320" type="line"/>
			<point x="532" y="208" type="line"/>
		</contour>
		<contour>
			<point x="53" y="500" type="curve" smooth="yes"/>
			<point x="-70" y="500" type="line"/>
			<point x="-70" y="607" type="line"/>
			<point x="90" y="607" type="line" smooth="yes"/>
			<point x="215" y="607"/>
			<point x="252" y="558"/>
			<point x="252" y="422" type="curve" smooth="yes"/>
			<point x="252" y="236" type="line" smooth="yes"/>
			<point x="252" y="149"/>
			<point x="234" y="134"/>
			<point x="142" y="134" type="curve" smooth="yes"/>
			<point x="45" y="134"/>
			<point x="23" y="153"/>
			<point x="23" y="227" type="curve" smooth="yes"/>
			<point x="23" y="302"/>
			<point x="44" y="320"/>
			<point x="104" y="320" type="curve"/>
			<point x="104" y="433" type="line" smooth="yes"/>
			<point x="104" y="482"/>
			<point x="96" y="500"/>
		</contour>
		<contour>
			<point x="428" y="256" type="line"/>
			<point x="463" y="159" type="line"/>
			<point x="438" y="124" type="line"/>
			<point x="435" y="124" type="line"/>
			<point x="364" y="-3" type="line"/>
			<point x="198" y="-3" type="line"/>
			<point x="198" y="1" type="line"/>
			<point x="238" y="65"/>
			<point x="318" y="152"/>
			<point x="375" y="206" type="curve"/>
			<point x="375" y="214" type="line"/>
			<point x="437" y="256" type="line"/>
		</contour>
	</outline>
</glyph>
<glyph name="dvB_RA" format="2">
	<advance width="637"/>
	<outline>
		<contour>
			<point x="264" y="82" type="curve" smooth="yes"/>
			<point x="338" y="82"/>
			<point x="392" y="92"/>
			<point x="427" y="109" type="curve"/>
			<point x="429" y="108" type="line"/>
			<point x="454" y="114" type="line"/>
			<point x="441" y="213" type="line"/>
			<point x="405" y="194"/>
			<point x="342" y="185"/>
			<point x="290" y="185" type="curve" smooth="yes"/>
			<point x="196" y="185"/>
			<point x="162" y="202"/>
			<point x="162" y="254" type="curve" smooth="yes"/>
			<point x="162" y="315"/>
			<point x="182" y="332"/>
			<point x="258" y="332" type="curve" smooth="yes"/>
			<point x="293" y="332"/>
			<point x="345" y="324"/>
			<point x="367" y="318" type="curve"/>
			<point x="371" y="319" type="line"/>
			<point x="371" y="422" type="line"/>
			<point x="334" y="433"/>
			<point x="263" y="439"/>
			<point x="216" y="439" type="curve" smooth="yes"/>
			<point x="94" y="439"/>
			<point x="30" y="392"/>
			<point x="30" y="252" type="curve" smooth="yes"/>
			<point x="30" y="131"/>
			<point x="99" y="82"/>
		</contour>
		<contour>
			<point x="158" y="-31" type="curve"/>
			<point x="158" y="-35" type="line"/>
			<point x="333" y="-35" type="line"/>
			<point x="425" y="106" type="line"/>
			<point x="429" y="106" type="line"/>
			<point x="442" y="132" type="line"/>
			<point x="318" y="134" type="line"/>
			<point x="267" y="81" type="line"/>
			<point x="267" y="78" type="line"/>
			<point x="222" y="43"/>
			<point x="193" y="13"/>
		</contour>
		<contour>
			<point x="411" y="127" type="line"/>
			<point x="451" y="178" type="line"/>
			<point x="232" y="330" type="line"/>
			<point x="232" y="331" type="line"/>
			<point x="205" y="350" type="line"/>
			<point x="166" y="297" type="line"/>
			<point x="170" y="297" type="line"/>
			<point x="344" y="177" type="line"/>
			<point x="344" y="176" type="line"/>
		</contour>
		<contour>
			<point x="429" y="9" type="line"/>
			<point x="577" y="9" type="line"/>
			<point x="577" y="501" type="line"/>
			<point x="429" y="501" type="line"/>
		</contour>
		<contour>
			<point x="-50" y="500" type="line"/>
			<point x="676" y="500" type="line"/>
			<point x="676" y="607" type="line"/>
			<point x="-50" y="607" type="line"/>
		</contour>
	</outline>
</glyph>
<glyph name="dvB_SHA" format="2">
	<advance width="1125"/>
	<outline>
		<contour>
			<point x="-50" y="500" type="line"/>
			<point x="-50" y="607" type="line"/>
			<point x="436" y="607" type="line"/>
			<point x="436" y="500" type="line"/>
		</contour>
		<contour>
			<point x="264" y="64" type="curve" smooth="yes"/>
			<point x="99" y="64"/>
			<point x="30" y="113"/>
			<point x="30" y="252" type="curve" smooth="yes"/>
			<point x="30" y="392"/>
			<point x="99" y="439"/>
			<point x="223" y="439" type="curve" smooth="yes"/>
			<point x="282" y="439"/>
			<point x="334" y="433"/>
			<point x="371" y="422" type="curve"/>
			<point x="371" y="319" type="line"/>
			<point x="367" y="318" type="line"/>
			<point x="340" y="326"/>
			<point x="295" y="332"/>
			<point x="258" y="332" type="curve" smooth="yes"/>
			<point x="182" y="332"/>
			<point x="162" y="315"/>
			<point x="162" y="254" type="curve" smooth="yes"/>
			<point x="162" y="190"/>
			<point x="196" y="173"/>
			<point x="280" y="173" type="curve" smooth="yes"/>
			<point x="352" y="173"/>
			<point x="428" y="201"/>
			<point x="447" y="224" type="curve"/>
			<point x="528" y="148" type="line"/>
			<point x="477" y="91"/>
			<point x="410" y="64"/>
		</contour>
		<contour>
			<point x="411" y="127" type="line"/>
			<point x="344" y="176" type="line"/>
			<point x="344" y="177" type="line"/>
			<point x="170" y="297" type="line"/>
			<point x="166" y="297" type="line"/>
			<point x="205" y="350" type="line"/>
			<point x="232" y="331" type="line"/>
			<point x="232" y="330" type="line"/>
			<point x="451" y="178" type="line"/>
		</contour>
		<contour>
			<point x="913" y="9" type="line"/>
			<point x="913" y="501" type="line"/>
			<point x="1061" y="501" type="line"/>
			<point x="1061" y="9" type="line"/>
		</contour>
		<contour>
			<point x="913" y="500" type="line"/>
			<point x="913" y="607" type="line"/>
			<point x="1161" y="607" type="line"/>
			<point x="1161" y="500" type="line"/>
		</contour>
		<contour>
			<point x="593" y="434" type="curve"/>
			<point x="593" y="432" type="line"/>
			<point x="471" y="432" type="line"/>
			<point x="469" y="441"/>
			<point x="467" y="455"/>
			<point x="467" y="467" type="curve" smooth="yes"/>
			<point x="467" y="563"/>
			<point x="523" y="615"/>
			<point x="648" y="615" type="curve" smooth="yes"/>
			<point x="773" y="615"/>
			<point x="829" y="557"/>
			<point x="829" y="433" type="curve" smooth="yes"/>
			<point x="829" y="317"/>
			<point x="754" y="230"/>
			<point x="601" y="230" type="curve" smooth="yes"/>
			<point x="583" y="230"/>
			<point x="584" y="231"/>
			<point x="563" y="235" type="curve"/>
			<point x="447" y="224" type="line"/>
			<point x="447" y="343" type="line"/>
			<point x="542" y="343" type="line"/>
			<point x="649" y="343"/>
			<point x="695" y="383"/>
			<point x="695" y="442" type="curve" smooth="yes"/>
			<point x="695" y="487"/>
			<point x="680" y="506"/>
			<point x="643" y="506" type="curve" smooth="yes"/>
			<point x="605" y="506"/>
			<point x="590" y="487"/>
			<point x="590" y="457" type="curve" smooth="yes"/>
			<point x="590" y="448"/>
			<point x="591" y="440"/>
		</contour>
		<contour>
			<point x="653" y="9" type="line"/>
			<point x="447" y="223" type="line"/>
			<point x="447" y="250" type="line"/>
			<point x="594" y="232" type="line"/>
			<point x="594" y="228" type="line"/>
			<point x="677" y="173"/>
			<point x="755" y="100"/>
			<point x="831" y="11" type="curve"/>
			<point x="831" y="9" type="line"/>
		</contour>
	</outline>
</glyph>
<glyph name="dvC_YA" format="2">
	<advance width="1105"/>
	<outline>
		<contour>
			<point x="296" y="78" type="curve" smooth="yes"/>
			<point x="164" y="78"/>
			<point x="84" y="119"/>
			<point x="84" y="221" type="curve" smooth="yes"/>
			<point x="84" y="265"/>
			<point x="97" y="290"/>
			<point x="115" y="304" type="curve"/>
			<point x="113" y="307" type="line"/>
			<point x="90" y="299"/>
			<point x="53" y="292"/>
			<point x="13" y="292" type="curve"/>
			<point x="13" y="423" type="line"/>
			<point x="352" y="423" type="line"/>
			<point x="352" y="317" type="line"/>
			<point x="272" y="317" type="line" smooth="yes"/>
			<point x="244" y="317"/>
			<point x="225" y="307"/>
			<point x="225" y="270" type="curve" smooth="yes"/>
			<point x="225" y="227"/>
			<point x="244" y="213"/>
			<point x="335" y="211" type="curve" smooth="yes"/>
			<point x="418" y="209"/>
			<point x="474" y="224"/>
			<point x="518" y="255" type="curve"/>
			<point x="542" y="120" type="line"/>
			<point x="477" y="89"/>
			<point x="398" y="78"/>
		</contour>
		<contour>
			<point x="-35" y="500" type="line"/>
			<point x="-35" y="607" type="line"/>
			<point x="502" y="607" type="line"/>
			<point x="502" y="500" type="line"/>
		</contour>
		<component base="dvYA" xOffset="427"/>
	</outline>
</glyph>
<glyph name="dvD" format="2">
	<advance width="531"/>
	<outline>
		<contour>
			<point x="342" y="-56" type="line"/>
			<point x="342" y="-51" type="line"/>
			<point x="480" y="-51" type="line"/>
			<point x="543" y="-87"/>
			<point x="603" y="-129"/>
			<point x="656" y="-180" type="curve"/>
			<point x="656" y="-185" type="line"/>
			<point x="516" y="-222" type="line"/>
		</contour>
		<component base="dvDA"/>
	</outline>
</glyph>
<glyph name="dvDDxA" format="2">
	<advance width="518"/>
	<anchor x="184" y="-223" name="blwm.virama"/>
	<anchor x="441" y="607" name="abvm.bindu"/>
	<anchor x="264" y="-243" name="blwm.u"/>
	<anchor x="439" y="607" name="abvm.e"/>
	<outline>
		<contour>
			<point x="332" y="-59" type="curve"/>
			<point x="334" y="-81"/>
			<point x="335" y="-96"/>
			<point x="335" y="-112" type="curve" smooth="yes"/>
			<point x="335" y="-128"/>
			<point x="334" y="-144"/>
			<point x="332" y="-165" type="curve"/>
			<point x="306" y="-170"/>
			<point x="281" y="-173"/>
			<point x="256" y="-173" type="curve" smooth="yes"/>
			<point x="232" y="-173"/>
			<point x="208" y="-170"/>
			<point x="183" y="-165" type="curve"/>
			<point x="180" y="-145"/>
			<point x="179" y="-129"/>
			<point x="179" y="-113" type="curve" smooth="yes"/>
			<point x="179" y="-98"/>
			<point x="180" y="-81"/>
			<point x="183" y="-59" type="curve"/>
			<point x="208" y="-54"/>
			<point x="233" y="-52"/>
			<point x="258" y="-52" type="curve" smooth="yes"/>
			<point x="282" y="-52"/>
			<point x="307" y="-54"/>
		</contour>
		<component base="dvDDA"/>
	</outline>
</glyph>
<glyph name="dvDH_R" format="2">
	<advance width="387"/>
	<outline>
		<contour>
			<point x="-65" y="500" type="line"/>
			<point x="273" y="500" type="line"/>
			<point x="273" y="607" type="line"/>
			<point x="-65" y="607" type="line"/>
		</contour>
		<contour>
			<point x="225" y="-29" type="curve"/>
			<point x="225" y="-33" type="line"/>
			<point x="390" y="-33" type="line"/>
			<point x="509" y="119" type="line"/>
			<point x="345" y="104" type="line"/>
			<point x="336" y="80" type="line"/>
			<point x="336" y="77" type="line"/>
			<point x="290" y="45"/>
			<point x="253" y="9"/>
		</contour>
		<contour>
			<point x="509" y="119" type="line"/>
			<point x="509" y="218" type="line"/>
			<point x="464" y="200"/>
			<point x="391" y="187"/>
			<point x="330" y="187" type="curve" smooth="yes"/>
			<point x="215" y="187"/>
			<point x="193" y="200"/>
			<point x="193" y="228" type="curve" smooth="yes"/>
			<point x="193" y="268"/>
			<point x="215" y="280"/>
			<point x="290" y="280" type="curve" smooth="yes"/>
			<point x="309" y="280" type="line"/>
			<point x="309" y="395" type="line"/>
			<point x="290" y="395" type="line" smooth="yes"/>
			<point x="207" y="395"/>
			<point x="185" y="411"/>
			<point x="185" y="447" type="curve" smooth="yes"/>
			<point x="185" y="483"/>
			<point x="197" y="500"/>
			<point x="260" y="500" type="curve"/>
			<point x="260" y="606" type="line"/>
			<point x="69" y="501" type="line"/>
			<point x="69" y="497" type="line"/>
			<point x="50" y="484"/>
			<point x="39" y="465"/>
			<point x="39" y="436" type="curve" smooth="yes"/>
			<point x="39" y="378"/>
			<point x="85" y="341"/>
			<point x="163" y="338" type="curve"/>
			<point x="163" y="334" type="line"/>
			<point x="89" y="330"/>
			<point x="48" y="281"/>
			<point x="48" y="216" type="curve" smooth="yes"/>
			<point x="48" y="130"/>
			<point x="118" y="79"/>
			<point x="289" y="79" type="curve" smooth="yes"/>
			<point x="352" y="79"/>
			<point x="458" y="99"/>
			<point x="501" y="118" type="curve"/>
			<point x="504" y="118" type="line"/>
		</contour>
	</outline>
</glyph>
<glyph name="dvD_B_RA" format="2">
	<advance width="572"/>
	<anchor x="385" y="-291" name="blwm.virama"/>
	<anchor x="510" y="607" name="abvm.bindu"/>
	<anchor x="428" y="-334" name="blwm.u"/>
	<anchor x="511" y="607" name="abvm.e"/>
	<outline>
		<contour>
			<point x="284" y="-170" type="curve" smooth="yes"/>
			<point x="443" y="-170"/>
			<point x="513" y="-139"/>
			<point x="513" y="-6" type="curve" smooth="yes"/>
			<point x="513" y="260" type="line"/>
			<point x="385" y="260" type="line"/>
			<point x="385" y="226" type="line" smooth="yes"/>
			<point x="385" y="179"/>
			<point x="366" y="177"/>
			<point x="284" y="177" type="curve" smooth="yes"/>
			<point x="192" y="177"/>
			<point x="172" y="186"/>
			<point x="172" y="246" type="curve" smooth="yes"/>
			<point x="172" y="306"/>
			<point x="191" y="321"/>
			<point x="273" y="321" type="curve" smooth="yes"/>
			<point x="481" y="321" type="line"/>
			<point x="481" y="431" type="line"/>
			<point x="451" y="434"/>
			<point x="343" y="435"/>
			<point x="256" y="435" type="curve" smooth="yes"/>
			<point x="97" y="435"/>
			<point x="36" y="388"/>
			<point x="36" y="253" type="curve" smooth="yes"/>
			<point x="36" y="188"/>
			<point x="66" y="141"/>
			<point x="104" y="121" type="curve"/>
			<point x="104" y="119" type="line"/>
			<point x="64" y="105"/>
			<point x="42" y="60"/>
			<point x="42" y="-3" type="curve" smooth="yes"/>
			<point x="42" y="-132"/>
			<point x="109" y="-170"/>
		</contour>
		<contour>
			<point x="123" y="-300" type="curve"/>
			<point x="123" y="-304" type="line"/>
			<point x="288" y="-304" type="line"/>
			<point x="390" y="-163" type="line"/>
			<point x="394" y="-163" type="line"/>
			<point x="397" y="-137" type="line"/>
			<point x="283" y="-135" type="line"/>
			<point x="252" y="-169" type="line"/>
			<point x="252" y="-172" type="line"/>
			<point x="207" y="-207"/>
			<point x="158" y="-256"/>
		</contour>
		<contour>
			<point x="281" y="-74" type="curve" smooth="yes"/>
			<point x="197" y="-74"/>
			<point x="167" y="-52"/>
			<point x="167" y="0" type="curve" smooth="yes"/>
			<point x="167" y="64"/>
			<point x="186" y="76"/>
			<point x="250" y="76" type="curve"/>
			<point x="309" y="75"/>
			<point x="355" y="80"/>
			<point x="388" y="91" type="curve"/>
			<point x="390" y="90" type="line"/>
			<point x="390" y="-2" type="line" smooth="yes"/>
			<point x="390" y="-52"/>
			<point x="384" y="-74"/>
		</contour>
		<contour>
			<point x="433" y="-118" type="line"/>
			<point x="459" y="-56" type="line"/>
			<point x="240" y="76" type="line"/>
			<point x="240" y="77" type="line"/>
			<point x="159" y="92" type="line"/>
			<point x="155" y="47" type="line"/>
			<point x="158" y="47" type="line"/>
		</contour>
		<contour>
			<point x="-50" y="500" type="line"/>
			<point x="616" y="500" type="line"/>
			<point x="616" y="607" type="line"/>
			<point x="-50" y="607" type="line"/>
		</contour>
		<contour>
			<point x="374" y="321" type="line"/>
			<point x="516" y="321" type="line"/>
			<point x="516" y="501" type="line"/>
			<point x="374" y="501" type="line"/>
		</contour>
		<contour>
			<point x="391" y="65" type="line"/>
			<point x="391" y="-244" type="line"/>
			<point x="513" y="-244" type="line"/>
			<point x="513" y="65" type="line"/>
		</contour>
	</outline>
</glyph>
<glyph name="dvEyelash_YA" format="2">
	<advance width="1020"/>
	<outline>
		<contour>
			<point x="-20" y="607" type="line"/>
			<point x="382" y="607" type="line"/>
			<point x="382" y="500" type="line"/>
			<point x="-20" y="500" type="line"/>
		</contour>
		<contour>
			<point x="382" y="257" type="line"/>
			<point x="214" y="257" type="line" smooth="yes"/>
			<point x="89" y="257"/>
			<point x="14" y="297"/>
			<point x="14" y="399" type="curve" smooth="yes"/>
			<point x="14" y="413" type="line"/>
			<point x="140" y="413" type="line"/>
			<point x="140" y="381"/>
			<point x="158" y="367"/>
			<point x="213" y="367" type="curve" smooth="yes"/>
			<point x="382" y="367" type="line"/>
		</contour>
		<component base="dvYA" xOffset="342"/>
	</outline>
</glyph>
<glyph name="dvG_RA" format="2">
	<advance width="585"/>
	<anchor x="471" y="607" name="abvm"/>
	<outline>
		<contour>
			<point x="375" y="292" type="curve"/>
			<point x="411" y="173" type="line"/>
			<point x="376" y="138" type="line"/>
			<point x="373" y="138" type="line"/>
			<point x="272" y="9" type="line"/>
			<point x="106" y="9" type="line"/>
			<point x="106" y="13" type="line"/>
			<point x="208" y="118"/>
			<point x="284" y="202"/>
		</contour>
		<contour>
			<point x="375" y="9" type="line"/>
			<point x="375" y="501" type="line"/>
			<point x="523" y="501" type="line"/>
			<point x="523" y="9" type="line"/>
		</contour>
		<contour>
			<point x="-50" y="500" type="line"/>
			<point x="-50" y="607" type="line"/>
			<point x="624" y="607" type="line"/>
			<point x="624" y="500" type="line"/>
		</contour>
		<contour>
			<point x="246" y="502" type="line"/>
			<point x="246" y="310" type="line" smooth="yes"/>
			<point x="246" y="241"/>
			<point x="209" y="189"/>
			<point x="129" y="189" type="curve" smooth="yes"/>
			<point x="85" y="189"/>
			<point x="49" y="197"/>
			<point x="20" y="209" type="curve"/>
			<point x="20" y="321" type="line"/>
			<point x="22" y="321" type="line"/>
			<point x="33" y="318"/>
			<point x="47" y="315"/>
			<point x="60" y="315" type="curve" smooth="yes"/>
			<point x="90" y="315"/>
			<point x="104" y="326"/>
			<point x="104" y="365" type="curve" smooth="yes"/>
			<point x="104" y="503" type="line"/>
		</contour>
	</outline>
</glyph>
<glyph name="dvGx_R" format="2">
	<advance width="358"/>
	<outline>
		<contour>
			<point x="271" y="512" type="line"/>
			<point x="271" y="320" type="line" smooth="yes"/>
			<point x="271" y="251"/>
			<point x="234" y="199"/>
			<point x="154" y="199" type="curve" smooth="yes"/>
			<point x="110" y="199"/>
			<point x="74" y="207"/>
			<point x="45" y="219" type="curve"/>
			<point x="45" y="331" type="line"/>
			<point x="47" y="331" type="line"/>
			<point x="58" y="328"/>
			<point x="72" y="325"/>
			<point x="85" y="325" type="curve" smooth="yes"/>
			<point x="115" y="325"/>
			<point x="129" y="336"/>
			<point x="129" y="375" type="curve" smooth="yes"/>
			<point x="129" y="513" type="line"/>
		</contour>
		<contour>
			<point x="-24" y="500" type="line"/>
			<point x="-24" y="607" type="line"/>
			<point x="452" y="607" type="line"/>
			<point x="452" y="500" type="line"/>
		</contour>
		<contour>
			<point x="123" y="163" type="curve"/>
			<point x="125" y="144"/>
			<point x="126" y="130"/>
			<point x="126" y="116" type="curve" smooth="yes"/>
			<point x="126" y="102"/>
			<point x="125" y="88"/>
			<point x="123" y="70" type="curve"/>
			<point x="100" y="65"/>
			<point x="78" y="63"/>
			<point x="56" y="63" type="curve" smooth="yes"/>
			<point x="35" y="63"/>
			<point x="14" y="65"/>
			<point x="-8" y="70" type="curve"/>
			<point x="-11" y="87"/>
			<point x="-12" y="101"/>
			<point x="-12" y="115" type="curve" smooth="yes"/>
			<point x="-12" y="129"/>
			<point x="-11" y="144"/>
			<point x="-8" y="163" type="curve"/>
			<point x="14" y="167"/>
			<point x="36" y="169"/>
			<point x="58" y="169" type="curve" smooth="yes"/>
			<point x="79" y="169"/>
			<point x="101" y="167"/>
		</contour>
		<contour>
			<point x="448" y="315" type="curve"/>
			<point x="450" y="315" type="line"/>
			<point x="450" y="173" type="line"/>
			<point x="291" y="9" type="line"/>
			<point x="125" y="9" type="line"/>
			<point x="125" y="13" type="line"/>
			<point x="197" y="94"/>
			<point x="373" y="259"/>
		</contour>
	</outline>
</glyph>
<glyph name="dvH_RA" format="2">
	<advance width="569"/>
	<anchor x="249" y="-101" name="blwm.virama"/>
	<anchor x="465" y="607" name="abvm.bindu"/>
	<anchor x="317" y="-130" name="blwm.u"/>
	<anchor x="466" y="607" name="abvm.e"/>
	<outline>
		<contour>
			<point x="309" y="-40" type="curve" smooth="yes"/>
			<point x="109" y="-40"/>
			<point x="37" y="7"/>
			<point x="37" y="122" type="curve" smooth="yes"/>
			<point x="37" y="209"/>
			<point x="68" y="236"/>
			<point x="122" y="246" type="curve"/>
			<point x="122" y="249" type="line"/>
			<point x="70" y="260"/>
			<point x="46" y="290"/>
			<point x="46" y="338" type="curve" smooth="yes"/>
			<point x="46" y="410"/>
			<point x="81" y="449"/>
			<point x="203" y="449" type="curve" smooth="yes"/>
			<point x="470" y="449" type="line"/>
			<point x="470" y="347" type="line"/>
			<point x="244" y="347" type="line" smooth="yes"/>
			<point x="195" y="347"/>
			<point x="183" y="342"/>
			<point x="183" y="315" type="curve" smooth="yes"/>
			<point x="183" y="298"/>
			<point x="195" y="294"/>
			<point x="264" y="294" type="curve"/>
			<point x="382" y="294" type="line"/>
			<point x="478" y="294"/>
			<point x="527" y="267"/>
			<point x="527" y="186" type="curve" smooth="yes"/>
			<point x="527" y="130" type="line"/>
			<point x="405" y="130" type="line"/>
			<point x="405" y="162" type="line" smooth="yes"/>
			<point x="405" y="190"/>
			<point x="388" y="195"/>
			<point x="279" y="195" type="curve" smooth="yes"/>
			<point x="180" y="195"/>
			<point x="167" y="185"/>
			<point x="167" y="139" type="curve" smooth="yes"/>
			<point x="167" y="91"/>
			<point x="196" y="70"/>
			<point x="321" y="70" type="curve" smooth="yes"/>
			<point x="422" y="70"/>
			<point x="494" y="72"/>
			<point x="528" y="76" type="curve"/>
			<point x="530" y="75" type="line"/>
			<point x="530" y="-27" type="line"/>
			<point x="493" y="-34"/>
			<point x="427" y="-40"/>
		</contour>
		<contour>
			<point x="-33" y="500" type="line"/>
			<point x="-33" y="607" type="line"/>
			<point x="604" y="607" type="line"/>
			<point x="604" y="500" type="line"/>
		</contour>
		<contour>
			<point x="347" y="370" type="line"/>
			<point x="347" y="517" type="line"/>
			<point x="470" y="517" type="line"/>
			<point x="470" y="370" type="line"/>
		</contour>
		<contour>
			<point x="227" y="101" type="line"/>
			<point x="227" y="103" type="line"/>
			<point x="238" y="132"/>
			<point x="256" y="165"/>
			<point x="278" y="194" type="curve"/>
			<point x="278" y="196" type="line"/>
			<point x="328" y="281" type="line"/>
			<point x="398" y="210" type="line"/>
			<point x="392" y="207" type="line"/>
			<point x="336" y="98" type="line"/>
		</contour>
	</outline>
</glyph>
<glyph name="dvJx" format="2">
	<advance width="429"/>
	<outline>
		<contour>
			<point x="162" y="-59" type="curve"/>
			<point x="164" y="-81"/>
			<point x="165" y="-96"/>
			<point x="165" y="-112" type="curve" smooth="yes"/>
			<point x="165" y="-128"/>
			<point x="164" y="-144"/>
			<point x="162" y="-165" type="curve"/>
			<point x="136" y="-170"/>
			<point x="111" y="-173"/>
			<point x="86" y="-173" type="curve" smooth="yes"/>
			<point x="62" y="-173"/>
			<point x="38" y="-170"/>
			<point x="13" y="-165" type="curve"/>
			<point x="10" y="-145"/>
			<point x="9" y="-129"/>
			<point x="9" y="-113" type="curve" smooth="yes"/>
			<point x="9" y="-98"/>
			<point x="10" y="-81"/>
			<point x="13" y="-59" type="curve"/>
			<point x="38" y="-54"/>
			<point x="63" y="-52"/>
			<point x="88" y="-52" type="curve" smooth="yes"/>
			<point x="112" y="-52"/>
			<point x="137" y="-54"/>
		</contour>
		<component base="dvJ"/>
	</outline>
</glyph>
<glyph name="dvKH_SHA" format="2">
	<advance width="1366"/>
	<outline>
		<contour>
			<point x="-30" y="500" type="line"/>
			<point x="-30" y="607" type="line"/>
			<point x="656" y="607" type="line"/>
			<point x="656" y="500" type="line"/>
		</contour>
		<contour>
			<point x="36" y="221" type="curve" smooth="yes"/>
			<point x="36" y="351" type="line"/>
			<point x="81" y="351" type="line" smooth="yes"/>
			<point x="154" y="351"/>
			<point x="187" y="365"/>
			<point x="187" y="433" type="curve" smooth="yes"/>
			<point x="187" y="556" type="line"/>
			<point x="329" y="556" type="line"/>
			<point x="329" y="407" type="line" smooth="yes"/>
			<point x="329" y="294"/>
			<point x="274" y="249"/>
			<point x="178" y="249" type="curve" smooth="yes"/>
			<point x="174" y="249" type="line"/>
			<point x="174" y="222" type="line" smooth="yes"/>
			<point x="174" y="153"/>
			<point x="227" y="112"/>
			<point x="364" y="112" type="curve" smooth="yes"/>
			<point x="487" y="112"/>
			<point x="537" y="125"/>
			<point x="565" y="150" type="curve"/>
			<point x="564" y="152" type="line"/>
			<point x="414" y="137"/>
			<point x="363" y="190"/>
			<point x="363" y="305" type="curve" smooth="yes"/>
			<point x="363" y="412"/>
			<point x="410" y="450"/>
			<point x="536" y="450" type="curve" smooth="yes"/>
			<point x="577" y="450"/>
			<point x="616" y="445"/>
			<point x="646" y="438" type="curve"/>
			<point x="646" y="346" type="line"/>
			<point x="644" y="345" type="line"/>
			<point x="625" y="348"/>
			<point x="600" y="351"/>
			<point x="573" y="351" type="curve" smooth="yes"/>
			<point x="512" y="351"/>
			<point x="497" y="339"/>
			<point x="497" y="300" type="curve" smooth="yes"/>
			<point x="497" y="252"/>
			<point x="521" y="242"/>
			<point x="577" y="242" type="curve" smooth="yes"/>
			<point x="629" y="242"/>
			<point x="675" y="247"/>
			<point x="709" y="263" type="curve"/>
			<point x="735" y="175" type="line"/>
			<point x="713" y="84"/>
			<point x="598" y="-2"/>
			<point x="364" y="-2" type="curve" smooth="yes"/>
			<point x="142" y="-2"/>
			<point x="36" y="67"/>
		</contour>
		<contour>
			<point x="1158" y="9" type="line"/>
			<point x="1158" y="501" type="line"/>
			<point x="1306" y="501" type="line"/>
			<point x="1306" y="9" type="line"/>
		</contour>
		<contour>
			<point x="1158" y="500" type="line"/>
			<point x="1158" y="607" type="line"/>
			<point x="1406" y="607" type="line"/>
			<point x="1406" y="500" type="line"/>
		</contour>
		<contour>
			<point x="838" y="434" type="curve"/>
			<point x="838" y="432" type="line"/>
			<point x="716" y="432" type="line"/>
			<point x="714" y="441"/>
			<point x="712" y="455"/>
			<point x="712" y="467" type="curve" smooth="yes"/>
			<point x="712" y="563"/>
			<point x="768" y="615"/>
			<point x="893" y="615" type="curve" smooth="yes"/>
			<point x="1018" y="615"/>
			<point x="1074" y="557"/>
			<point x="1074" y="433" type="curve" smooth="yes"/>
			<point x="1074" y="317"/>
			<point x="999" y="230"/>
			<point x="846" y="230" type="curve" smooth="yes"/>
			<point x="828" y="230"/>
			<point x="829" y="231"/>
			<point x="808" y="235" type="curve"/>
			<point x="692" y="224" type="line"/>
			<point x="692" y="343" type="line"/>
			<point x="787" y="343" type="line"/>
			<point x="894" y="343"/>
			<point x="940" y="383"/>
			<point x="940" y="442" type="curve" smooth="yes"/>
			<point x="940" y="487"/>
			<point x="925" y="506"/>
			<point x="888" y="506" type="curve" smooth="yes"/>
			<point x="850" y="506"/>
			<point x="835" y="487"/>
			<point x="835" y="457" type="curve" smooth="yes"/>
			<point x="835" y="448"/>
			<point x="836" y="440"/>
		</contour>
		<contour>
			<point x="898" y="9" type="line"/>
			<point x="692" y="223" type="line"/>
			<point x="692" y="250" type="line"/>
			<point x="839" y="232" type="line"/>
			<point x="839" y="228" type="line"/>
			<point x="922" y="173"/>
			<point x="1000" y="100"/>
			<point x="1076" y="11" type="curve"/>
			<point x="1076" y="9" type="line"/>
		</contour>
	</outline>
</glyph>
<glyph name="dvKHx_SHA" format="2">
	<advance width="1355"/>
	<outline>
		<contour>
			<point x="-30" y="500" type="line"/>
			<point x="-30" y="607" type="line"/>
			<point x="656" y="607" type="line"/>
			<point x="656" y="500" type="line"/>
		</contour>
		<contour>
			<point x="36" y="221" type="curve" smooth="yes"/>
			<point x="36" y="351" type="line"/>
			<point x="81" y="351" type="line" smooth="yes"/>
			<point x="154" y="351"/>
			<point x="187" y="365"/>
			<point x="187" y="433" type="curve" smooth="yes"/>
			<point x="187" y="556" type="line"/>
			<point x="329" y="556" type="line"/>
			<point x="329" y="407" type="line" smooth="yes"/>
			<point x="329" y="294"/>
			<point x="274" y="249"/>
			<point x="178" y="249" type="curve" smooth="yes"/>
			<point x="174" y="249" type="line"/>
			<point x="174" y="222" type="line" smooth="yes"/>
			<point x="174" y="153"/>
			<point x="227" y="112"/>
			<point x="364" y="112" type="curve" smooth="yes"/>
			<point x="487" y="112"/>
			<point x="537" y="125"/>
			<point x="565" y="150" type="curve"/>
			<point x="564" y="152" type="line"/>
			<point x="414" y="137"/>
			<point x="363" y="190"/>
			<point x="363" y="305" type="curve" smooth="yes"/>
			<point x="363" y="412"/>
			<point x="410" y="450"/>
			<point x="536" y="450" type="curve" smooth="yes"/>
			<point x="577" y="450"/>
			<point x="616" y="445"/>
			<point x="646" y="438" type="curve"/>
			<point x="646" y="346" type="line"/>
			<point x="644" y="345" type="line"/>
			<point x="625" y="348"/>
			<point x="600" y="351"/>
			<point x="573" y="351" type="curve" smooth="yes"/>
			<point x="512" y="351"/>
			<point x="497" y="339"/>
			<point x="497" y="300" type="curve" smooth="yes"/>
			<point x="497" y="252"/>
			<point x="521" y="242"/>
			<point x="577" y="242" type="curve" smooth="yes"/>
			<point x="629" y="242"/>
			<point x="675" y="247"/>
			<point x="709" y="263" type="curve"/>
			<point x="741" y="174" type="line"/>
			<point x="719" y="83"/>
			<point x="598" y="-2"/>
			<point x="364" y="-2" type="curve" smooth="yes"/>
			<point x="142" y="-2"/>
			<point x="36" y="67"/>
		</contour>
		<contour>
			<point x="193" y="-49" type="curve"/>
			<point x="195" y="-71"/>
			<point x="196" y="-86"/>
			<point x="196" y="-102" type="curve" smooth="yes"/>
			<point x="196" y="-118"/>
			<point x="195" y="-134"/>
			<point x="193" y="-155" type="curve"/>
			<point x="167" y="-160"/>
			<point x="142" y="-163"/>
			<point x="117" y="-163" type="curve" smooth="yes"/>
			<point x="93" y="-163"/>
			<point x="69" y="-160"/>
			<point x="44" y="-155" type="curve"/>
			<point x="41" y="-135"/>
			<point x="40" y="-119"/>
			<point x="40" y="-103" type="curve" smooth="yes"/>
			<point x="40" y="-88"/>
			<point x="41" y="-71"/>
			<point x="44" y="-49" type="curve"/>
			<point x="69" y="-44"/>
			<point x="94" y="-42"/>
			<point x="119" y="-42" type="curve" smooth="yes"/>
			<point x="143" y="-42"/>
			<point x="168" y="-44"/>
		</contour>
		<component base="dvSHA" xOffset="651"/>
	</outline>
</glyph>
<glyph name="dvKx_PHA" format="2">
	<advance width="1581"/>
	<anchor x="1051" y="-51" name="blwm.virama"/>
	<anchor x="1198" y="607" name="abvm.bindu"/>
	<anchor x="1133" y="-81" name="blwm.u"/>
	<anchor x="1199" y="607" name="abvm.e"/>
	<outline>
		<contour>
			<point x="193" y="436" type="curve" smooth="yes"/>
			<point x="240" y="436"/>
			<point x="291" y="430"/>
			<point x="328" y="419" type="curve"/>
			<point x="326" y="305" type="line"/>
			<point x="322" y="304" type="line"/>
			<point x="299" y="310"/>
			<point x="272" y="315"/>
			<point x="236" y="315" type="curve" smooth="yes"/>
			<point x="174" y="315"/>
			<point x="160" y="298"/>
			<point x="160" y="248" type="curve" smooth="yes"/>
			<point x="160" y="198"/>
			<point x="174" y="181"/>
			<point x="263" y="181" type="curve" smooth="yes"/>
			<point x="317" y="181"/>
			<point x="361" y="190"/>
			<point x="398" y="210" type="curve"/>
			<point x="386" y="87" type="line"/>
			<point x="384" y="87" type="line"/>
			<point x="354" y="72"/>
			<point x="298" y="62"/>
			<point x="241" y="62" type="curve" smooth="yes"/>
			<point x="76" y="62"/>
			<point x="25" y="108"/>
			<point x="25" y="250" type="curve" smooth="yes"/>
			<point x="25" y="390"/>
			<point x="71" y="436"/>
		</contour>
		<contour>
			<point x="386" y="9" type="line"/>
			<point x="386" y="501" type="line"/>
			<point x="534" y="501" type="line"/>
			<point x="534" y="9" type="line"/>
		</contour>
		<contour>
			<point x="-35" y="500" type="line"/>
			<point x="-35" y="607" type="line"/>
			<point x="863" y="607" type="line"/>
			<point x="863" y="500" type="line"/>
		</contour>
		<contour>
			<point x="865" y="321" type="curve"/>
			<point x="776" y="240" type="line"/>
			<point x="767" y="266"/>
			<point x="738" y="275"/>
			<point x="657" y="275" type="curve" smooth="yes"/>
			<point x="603" y="275"/>
			<point x="559" y="266"/>
			<point x="522" y="246" type="curve"/>
			<point x="534" y="369" type="line"/>
			<point x="536" y="369" type="line"/>
			<point x="566" y="384"/>
			<point x="622" y="394"/>
			<point x="679" y="394" type="curve"/>
			<point x="781" y="394"/>
			<point x="838" y="374"/>
		</contour>
		<contour>
			<point x="735" y="315" type="curve" smooth="yes"/>
			<point x="735" y="505" type="line"/>
			<point x="883" y="505" type="line"/>
			<point x="883" y="297" type="line" smooth="yes"/>
			<point x="883" y="247"/>
			<point x="902" y="228"/>
			<point x="973" y="228" type="curve" smooth="yes"/>
			<point x="1009" y="228"/>
			<point x="1041" y="235"/>
			<point x="1062" y="248" type="curve"/>
			<point x="1073" y="127" type="line"/>
			<point x="1065" y="122"/>
			<point x="1058" y="125"/>
			<point x="1046" y="122" type="curve"/>
			<point x="1044" y="123" type="line"/>
			<point x="1018" y="111"/>
			<point x="980" y="103"/>
			<point x="943" y="103" type="curve" smooth="yes"/>
			<point x="782" y="103"/>
			<point x="735" y="164"/>
		</contour>
		<contour>
			<point x="1046" y="9" type="line"/>
			<point x="1046" y="501" type="line"/>
			<point x="1195" y="501" type="line"/>
			<point x="1195" y="9" type="line"/>
		</contour>
		<contour>
			<point x="635" y="500" type="line"/>
			<point x="635" y="607" type="line"/>
			<point x="1626" y="607" type="line"/>
			<point x="1626" y="500" type="line"/>
		</contour>
		<contour>
			<point x="1388" y="60" type="curve" smooth="yes"/>
			<point x="1341" y="60"/>
			<point x="1290" y="66"/>
			<point x="1253" y="77" type="curve"/>
			<point x="1255" y="191" type="line"/>
			<point x="1259" y="192" type="line"/>
			<point x="1282" y="186"/>
			<point x="1309" y="181"/>
			<point x="1345" y="181" type="curve" smooth="yes"/>
			<point x="1407" y="181"/>
			<point x="1421" y="198"/>
			<point x="1421" y="248" type="curve" smooth="yes"/>
			<point x="1421" y="298"/>
			<point x="1407" y="315"/>
			<point x="1318" y="315" type="curve" smooth="yes"/>
			<point x="1264" y="315"/>
			<point x="1220" y="306"/>
			<point x="1183" y="286" type="curve"/>
			<point x="1195" y="409" type="line"/>
			<point x="1197" y="409" type="line"/>
			<point x="1227" y="424"/>
			<point x="1283" y="434"/>
			<point x="1340" y="434" type="curve"/>
			<point x="1505" y="434"/>
			<point x="1556" y="388"/>
			<point x="1556" y="246" type="curve" smooth="yes"/>
			<point x="1556" y="106"/>
			<point x="1510" y="60"/>
		</contour>
		<contour>
			<point x="243" y="4" type="curve"/>
			<point x="245" y="-18"/>
			<point x="246" y="-33"/>
			<point x="246" y="-49" type="curve" smooth="yes"/>
			<point x="246" y="-65"/>
			<point x="245" y="-81"/>
			<point x="243" y="-102" type="curve"/>
			<point x="217" y="-107"/>
			<point x="192" y="-110"/>
			<point x="167" y="-110" type="curve" smooth="yes"/>
			<point x="143" y="-110"/>
			<point x="119" y="-107"/>
			<point x="94" y="-102" type="curve"/>
			<point x="91" y="-82"/>
			<point x="90" y="-66"/>
			<point x="90" y="-50" type="curve" smooth="yes"/>
			<point x="90" y="-35"/>
			<point x="91" y="-18"/>
			<point x="94" y="4" type="curve"/>
			<point x="119" y="9"/>
			<point x="144" y="11"/>
			<point x="169" y="11" type="curve" smooth="yes"/>
			<point x="193" y="11"/>
			<point x="218" y="9"/>
		</contour>
	</outline>
</glyph>
<glyph name="dvL_PHA" format="2">
	<advance width="1433"/>
	<anchor x="903" y="-51" name="blwm.virama"/>
	<anchor x="1050" y="607" name="abvm.bindu"/>
	<anchor x="985" y="-81" name="blwm.u"/>
	<anchor x="1051" y="607" name="abvm.e"/>
	<outline>
		<contour>
			<point x="-10" y="500" type="line"/>
			<point x="-10" y="607" type="line"/>
			<point x="622" y="607" type="line"/>
			<point x="622" y="500" type="line"/>
		</contour>
		<contour>
			<point x="682" y="332" type="curve"/>
			<point x="591" y="265" type="line"/>
			<point x="582" y="287"/>
			<point x="564" y="294"/>
			<point x="527" y="294" type="curve" smooth="yes"/>
			<point x="475" y="294"/>
			<point x="450" y="274"/>
			<point x="450" y="193" type="curve" smooth="yes"/>
			<point x="450" y="126" type="line"/>
			<point x="318" y="126" type="line"/>
			<point x="318" y="193" type="line" smooth="yes"/>
			<point x="318" y="274"/>
			<point x="297" y="294"/>
			<point x="251" y="294" type="curve" smooth="yes"/>
			<point x="201" y="294"/>
			<point x="178" y="274"/>
			<point x="178" y="203" type="curve" smooth="yes"/>
			<point x="178" y="138"/>
			<point x="191" y="75"/>
			<point x="216" y="14" type="curve"/>
			<point x="216" y="9" type="line"/>
			<point x="82" y="9" type="line"/>
			<point x="50" y="82"/>
			<point x="35" y="159"/>
			<point x="35" y="236" type="curve" smooth="yes"/>
			<point x="35" y="362"/>
			<point x="91" y="420"/>
			<point x="214" y="420" type="curve" smooth="yes"/>
			<point x="318" y="420"/>
			<point x="368" y="383"/>
			<point x="377" y="326" type="curve"/>
			<point x="380" y="326" type="line"/>
			<point x="390" y="380"/>
			<point x="430" y="419"/>
			<point x="514" y="419" type="curve" smooth="yes"/>
			<point x="599" y="419"/>
			<point x="642" y="384"/>
			<point x="648" y="358" type="curve"/>
			<point x="664" y="350"/>
			<point x="675" y="343"/>
		</contour>
		<contour>
			<point x="587" y="315" type="curve" smooth="yes"/>
			<point x="587" y="505" type="line"/>
			<point x="735" y="505" type="line"/>
			<point x="735" y="297" type="line" smooth="yes"/>
			<point x="735" y="247"/>
			<point x="754" y="228"/>
			<point x="825" y="228" type="curve" smooth="yes"/>
			<point x="861" y="228"/>
			<point x="893" y="235"/>
			<point x="914" y="248" type="curve"/>
			<point x="925" y="127" type="line"/>
			<point x="917" y="122"/>
			<point x="910" y="125"/>
			<point x="898" y="122" type="curve"/>
			<point x="896" y="123" type="line"/>
			<point x="870" y="111"/>
			<point x="832" y="103"/>
			<point x="795" y="103" type="curve" smooth="yes"/>
			<point x="634" y="103"/>
			<point x="587" y="164"/>
		</contour>
		<contour>
			<point x="898" y="9" type="line"/>
			<point x="898" y="501" type="line"/>
			<point x="1047" y="501" type="line"/>
			<point x="1047" y="9" type="line"/>
		</contour>
		<contour>
			<point x="487" y="500" type="line"/>
			<point x="487" y="607" type="line"/>
			<point x="1478" y="607" type="line"/>
			<point x="1478" y="500" type="line"/>
		</contour>
		<contour>
			<point x="1240" y="60" type="curve" smooth="yes"/>
			<point x="1193" y="60"/>
			<point x="1142" y="66"/>
			<point x="1105" y="77" type="curve"/>
			<point x="1107" y="191" type="line"/>
			<point x="1111" y="192" type="line"/>
			<point x="1134" y="186"/>
			<point x="1161" y="181"/>
			<point x="1197" y="181" type="curve" smooth="yes"/>
			<point x="1259" y="181"/>
			<point x="1273" y="198"/>
			<point x="1273" y="248" type="curve" smooth="yes"/>
			<point x="1273" y="298"/>
			<point x="1259" y="315"/>
			<point x="1170" y="315" type="curve" smooth="yes"/>
			<point x="1116" y="315"/>
			<point x="1072" y="306"/>
			<point x="1035" y="286" type="curve"/>
			<point x="1047" y="409" type="line"/>
			<point x="1049" y="409" type="line"/>
			<point x="1079" y="424"/>
			<point x="1135" y="434"/>
			<point x="1192" y="434" type="curve"/>
			<point x="1357" y="434"/>
			<point x="1408" y="388"/>
			<point x="1408" y="246" type="curve" smooth="yes"/>
			<point x="1408" y="106"/>
			<point x="1362" y="60"/>
		</contour>
	</outline>
</glyph>
<glyph name="dvL_TH_YA" format="2">
	<advance width="1711"/>
	<outline>
		<contour>
			<point x="849" y="70" type="curve" smooth="yes"/>
			<point x="966" y="70"/>
			<point x="1057" y="94"/>
			<point x="1134" y="140" type="curve"/>
			<point x="1115" y="264" type="line"/>
			<point x="1033" y="217"/>
			<point x="945" y="196"/>
			<point x="866" y="196" type="curve" smooth="yes"/>
			<point x="772" y="196"/>
			<point x="717" y="217"/>
			<point x="714" y="265" type="curve"/>
			<point x="727" y="264"/>
			<point x="741" y="263"/>
			<point x="753" y="263" type="curve" smooth="yes"/>
			<point x="882" y="263"/>
			<point x="948" y="322"/>
			<point x="948" y="443" type="curve" smooth="yes"/>
			<point x="948" y="559"/>
			<point x="888" y="616"/>
			<point x="774" y="616" type="curve" smooth="yes"/>
			<point x="660" y="616"/>
			<point x="597" y="572"/>
			<point x="597" y="465" type="curve" smooth="yes"/>
			<point x="597" y="454"/>
			<point x="598" y="443"/>
			<point x="600" y="432" type="curve"/>
			<point x="723" y="432" type="line"/>
			<point x="723" y="434" type="line"/>
			<point x="721" y="440"/>
			<point x="720" y="448"/>
			<point x="720" y="455" type="curve" smooth="yes"/>
			<point x="720" y="481"/>
			<point x="732" y="500"/>
			<point x="767" y="500" type="curve" smooth="yes"/>
			<point x="801" y="500"/>
			<point x="815" y="484"/>
			<point x="815" y="444" type="curve" smooth="yes"/>
			<point x="815" y="385"/>
			<point x="779" y="366"/>
			<point x="687" y="366" type="curve"/>
			<point x="572" y="366" type="line"/>
			<point x="572" y="321" type="line" smooth="yes"/>
			<point x="572" y="151"/>
			<point x="652" y="70"/>
		</contour>
		<contour>
			<point x="82" y="9" type="curve"/>
			<point x="216" y="9" type="line"/>
			<point x="216" y="14" type="line"/>
			<point x="191" y="75"/>
			<point x="178" y="138"/>
			<point x="178" y="203" type="curve" smooth="yes"/>
			<point x="178" y="274"/>
			<point x="201" y="294"/>
			<point x="251" y="294" type="curve" smooth="yes"/>
			<point x="297" y="294"/>
			<point x="318" y="274"/>
			<point x="318" y="193" type="curve" smooth="yes"/>
			<point x="318" y="126" type="line"/>
			<point x="450" y="126" type="line"/>
			<point x="450" y="193" type="line" smooth="yes"/>
			<point x="450" y="274"/>
			<point x="475" y="294"/>
			<point x="527" y="294" type="curve" smooth="yes"/>
			<point x="590" y="294"/>
			<point x="599" y="274"/>
			<point x="599" y="193" type="curve"/>
			<point x="699" y="193" type="line"/>
			<point x="697" y="317"/>
			<point x="697" y="333"/>
			<point x="648" y="358" type="curve"/>
			<point x="642" y="384"/>
			<point x="599" y="419"/>
			<point x="514" y="419" type="curve" smooth="yes"/>
			<point x="430" y="419"/>
			<point x="390" y="380"/>
			<point x="380" y="326" type="curve"/>
			<point x="377" y="326" type="line"/>
			<point x="368" y="383"/>
			<point x="318" y="420"/>
			<point x="214" y="420" type="curve" smooth="yes"/>
			<point x="91" y="420"/>
			<point x="35" y="362"/>
			<point x="35" y="236" type="curve" smooth="yes"/>
			<point x="35" y="159"/>
			<point x="50" y="82"/>
		</contour>
		<contour>
			<point x="-10" y="500" type="line"/>
			<point x="537" y="500" type="line"/>
			<point x="537" y="607" type="line"/>
			<point x="-10" y="607" type="line"/>
		</contour>
		<contour>
			<point x="1333" y="76" type="curve" smooth="yes"/>
			<point x="1400" y="76"/>
			<point x="1452" y="84"/>
			<point x="1499" y="100" type="curve"/>
			<point x="1503" y="98" type="line"/>
			<point x="1536" y="110"/>
			<point x="1558" y="125"/>
			<point x="1583" y="146" type="curve"/>
			<point x="1552" y="257" type="line"/>
			<point x="1498" y="216"/>
			<point x="1435" y="200"/>
			<point x="1347" y="200" type="curve" smooth="yes"/>
			<point x="1237" y="200"/>
			<point x="1191" y="227"/>
			<point x="1190" y="270" type="curve"/>
			<point x="1311" y="277"/>
			<point x="1354" y="320"/>
			<point x="1354" y="422" type="curve" smooth="yes"/>
			<point x="1354" y="520" type="line"/>
			<point x="1212" y="520" type="line"/>
			<point x="1212" y="464" type="line" smooth="yes"/>
			<point x="1212" y="379"/>
			<point x="1197" y="367"/>
			<point x="1104" y="367" type="curve" smooth="yes"/>
			<point x="1056" y="367" type="line"/>
			<point x="1056" y="312" type="line" smooth="yes"/>
			<point x="1056" y="156"/>
			<point x="1152" y="76"/>
		</contour>
		<contour>
			<point x="1503" y="9" type="line"/>
			<point x="1651" y="9" type="line"/>
			<point x="1651" y="501" type="line"/>
			<point x="1503" y="501" type="line"/>
		</contour>
		<contour>
			<point x="1008" y="500" type="line"/>
			<point x="1751" y="500" type="line"/>
			<point x="1751" y="607" type="line"/>
			<point x="1008" y="607" type="line"/>
		</contour>
	</outline>
</glyph>
<glyph name="dvM_BH_VA" format="2">
	<advance width="1383"/>
	<outline>
		<contour>
			<point x="137" y="174" type="line"/>
			<point x="137" y="286" type="line"/>
			<point x="520" y="287" type="line"/>
			<point x="520" y="175" type="line"/>
		</contour>
		<contour>
			<point x="87" y="280" type="curve"/>
			<point x="87" y="500" type="line"/>
			<point x="235" y="500" type="line"/>
			<point x="235" y="196" type="line" smooth="yes"/>
			<point x="235" y="109"/>
			<point x="218" y="94"/>
			<point x="126" y="94" type="curve" smooth="yes"/>
			<point x="29" y="94"/>
			<point x="6" y="113"/>
			<point x="6" y="187" type="curve" smooth="yes"/>
			<point x="6" y="262"/>
			<point x="27" y="280"/>
		</contour>
		<contour>
			<point x="-75" y="500" type="line"/>
			<point x="-75" y="607" type="line"/>
			<point x="430" y="607" type="line"/>
			<point x="430" y="500" type="line"/>
		</contour>
		<component base="dvBH_VA" xOffset="380"/>
	</outline>
</glyph>
<glyph name="dvN_DA" format="2">
	<advance width="914"/>
	<outline>
		<contour>
			<point x="722" y="321" type="line"/>
			<point x="722" y="501" type="line"/>
			<point x="854" y="501" type="line"/>
			<point x="854" y="321" type="line"/>
		</contour>
		<contour>
			<point x="303" y="500" type="line"/>
			<point x="303" y="607" type="line"/>
			<point x="954" y="607" type="line"/>
			<point x="954" y="500" type="line"/>
		</contour>
		<contour>
			<point x="389" y="253" type="curve" smooth="yes"/>
			<point x="389" y="388"/>
			<point x="450" y="435"/>
			<point x="609" y="435" type="curve" smooth="yes"/>
			<point x="696" y="435"/>
			<point x="804" y="434"/>
			<point x="834" y="431" type="curve"/>
			<point x="834" y="321" type="line"/>
			<point x="626" y="321" type="line" smooth="yes"/>
			<point x="544" y="321"/>
			<point x="525" y="306"/>
			<point x="525" y="247" type="curve" smooth="yes"/>
			<point x="525" y="189"/>
			<point x="545" y="179"/>
			<point x="637" y="179" type="curve" smooth="yes"/>
			<point x="722" y="179"/>
			<point x="743" y="191"/>
			<point x="743" y="218" type="curve" smooth="yes"/>
			<point x="743" y="250" type="line"/>
			<point x="859" y="250" type="line"/>
			<point x="859" y="9" type="line"/>
			<point x="715" y="9" type="line"/>
			<point x="715" y="49"/>
			<point x="718" y="68"/>
			<point x="725" y="87" type="curve"/>
			<point x="722" y="89" type="line"/>
			<point x="695" y="74"/>
			<point x="648" y="65"/>
			<point x="589" y="65" type="curve" smooth="yes"/>
			<point x="456" y="65"/>
			<point x="389" y="116"/>
		</contour>
		<component base="dvN"/>
	</outline>
</glyph>
<glyph name="dvN_N_YA" format="2">
	<advance width="1404"/>
	<outline>
		<contour>
			<point x="-60" y="500" type="line"/>
			<point x="-60" y="607" type="line"/>
			<point x="453" y="607" type="line"/>
			<point x="453" y="500" type="line"/>
		</contour>
		<contour>
			<point x="146" y="252" type="line"/>
			<point x="146" y="364" type="line"/>
			<point x="493" y="365" type="line"/>
			<point x="493" y="253" type="line"/>
		</contour>
		<contour>
			<point x="134" y="364" type="curve"/>
			<point x="234" y="364" type="line"/>
			<point x="234" y="275" type="line" smooth="yes"/>
			<point x="234" y="188"/>
			<point x="214" y="178"/>
			<point x="131" y="178" type="curve" smooth="yes"/>
			<point x="51" y="178"/>
			<point x="31" y="195"/>
			<point x="31" y="271" type="curve" smooth="yes"/>
			<point x="31" y="353"/>
			<point x="52" y="364"/>
		</contour>
		<component base="dvN_YA" xOffset="363"/>
	</outline>
</glyph>
<glyph name="dvN_YA" format="2">
	<advance width="1041"/>
	<outline>
		<contour>
			<point x="-60" y="500" type="line"/>
			<point x="-60" y="607" type="line"/>
			<point x="453" y="607" type="line"/>
			<point x="453" y="500" type="line"/>
		</contour>
		<contour>
			<point x="146" y="254" type="line"/>
			<point x="146" y="366" type="line"/>
			<point x="453" y="367" type="line"/>
			<point x="453" y="255" type="line"/>
		</contour>
		<contour>
			<point x="134" y="366" type="curve"/>
			<point x="234" y="366" type="line"/>
			<point x="234" y="277" type="line" smooth="yes"/>
			<point x="234" y="190"/>
			<point x="214" y="180"/>
			<point x="131" y="180" type="curve" smooth="yes"/>
			<point x="51" y="180"/>
			<point x="31" y="197"/>
			<point x="31" y="273" type="curve" smooth="yes"/>
			<point x="31" y="355"/>
			<point x="52" y="366"/>
		</contour>
		<component base="dvYA" xOffset="363"/>
	</outline>
</glyph>
<glyph name="dvPH_PHA" format="2">
	<advance width="1572"/>
	<anchor x="1040" y="-51" name="blwm.virama"/>
	<anchor x="1189" y="607" name="abvm.bindu"/>
	<anchor x="1124" y="-81" name="blwm.u"/>
	<anchor x="1190" y="607" name="abvm.e"/>
	<outline>
		<contour>
			<point x="50" y="315" type="curve" smooth="yes"/>
			<point x="50" y="505" type="line"/>
			<point x="198" y="505" type="line"/>
			<point x="198" y="297" type="line" smooth="yes"/>
			<point x="198" y="247"/>
			<point x="217" y="228"/>
			<point x="288" y="228" type="curve" smooth="yes"/>
			<point x="324" y="228"/>
			<point x="356" y="235"/>
			<point x="377" y="248" type="curve"/>
			<point x="388" y="127" type="line"/>
			<point x="380" y="122"/>
			<point x="373" y="125"/>
			<point x="361" y="122" type="curve"/>
			<point x="359" y="123" type="line"/>
			<point x="333" y="111"/>
			<point x="295" y="103"/>
			<point x="258" y="103" type="curve" smooth="yes"/>
			<point x="97" y="103"/>
			<point x="50" y="164"/>
		</contour>
		<contour>
			<point x="361" y="9" type="line"/>
			<point x="361" y="501" type="line"/>
			<point x="510" y="501" type="line"/>
			<point x="510" y="9" type="line"/>
		</contour>
		<contour>
			<point x="-50" y="500" type="line"/>
			<point x="-50" y="607" type="line"/>
			<point x="781" y="607" type="line"/>
			<point x="781" y="500" type="line"/>
		</contour>
		<contour>
			<point x="835" y="310" type="curve"/>
			<point x="746" y="219" type="line"/>
			<point x="734" y="245"/>
			<point x="698" y="254"/>
			<point x="627" y="254" type="curve" smooth="yes"/>
			<point x="573" y="254"/>
			<point x="529" y="245"/>
			<point x="492" y="225" type="curve"/>
			<point x="504" y="358" type="line"/>
			<point x="506" y="358" type="line"/>
			<point x="536" y="373"/>
			<point x="592" y="383"/>
			<point x="649" y="383" type="curve" smooth="yes"/>
			<point x="751" y="383"/>
			<point x="808" y="363"/>
		</contour>
		<contour>
			<point x="726" y="315" type="curve" smooth="yes"/>
			<point x="726" y="505" type="line"/>
			<point x="874" y="505" type="line"/>
			<point x="874" y="297" type="line" smooth="yes"/>
			<point x="874" y="247"/>
			<point x="893" y="228"/>
			<point x="964" y="228" type="curve" smooth="yes"/>
			<point x="1000" y="228"/>
			<point x="1032" y="235"/>
			<point x="1053" y="248" type="curve"/>
			<point x="1064" y="127" type="line"/>
			<point x="1056" y="122"/>
			<point x="1049" y="125"/>
			<point x="1037" y="122" type="curve"/>
			<point x="1035" y="123" type="line"/>
			<point x="1009" y="111"/>
			<point x="971" y="103"/>
			<point x="934" y="103" type="curve" smooth="yes"/>
			<point x="773" y="103"/>
			<point x="726" y="164"/>
		</contour>
		<contour>
			<point x="1037" y="9" type="line"/>
			<point x="1037" y="501" type="line"/>
			<point x="1186" y="501" type="line"/>
			<point x="1186" y="9" type="line"/>
		</contour>
		<contour>
			<point x="626" y="500" type="line"/>
			<point x="626" y="607" type="line"/>
			<point x="1617" y="607" type="line"/>
			<point x="1617" y="500" type="line"/>
		</contour>
		<contour>
			<point x="1379" y="60" type="curve" smooth="yes"/>
			<point x="1332" y="60"/>
			<point x="1281" y="66"/>
			<point x="1244" y="77" type="curve"/>
			<point x="1246" y="191" type="line"/>
			<point x="1250" y="192" type="line"/>
			<point x="1273" y="186"/>
			<point x="1300" y="181"/>
			<point x="1336" y="181" type="curve" smooth="yes"/>
			<point x="1398" y="181"/>
			<point x="1412" y="198"/>
			<point x="1412" y="248" type="curve" smooth="yes"/>
			<point x="1412" y="298"/>
			<point x="1398" y="315"/>
			<point x="1309" y="315" type="curve" smooth="yes"/>
			<point x="1255" y="315"/>
			<point x="1211" y="306"/>
			<point x="1174" y="286" type="curve"/>
			<point x="1186" y="409" type="line"/>
			<point x="1188" y="409" type="line"/>
			<point x="1218" y="424"/>
			<point x="1274" y="434"/>
			<point x="1331" y="434" type="curve"/>
			<point x="1496" y="434"/>
			<point x="1547" y="388"/>
			<point x="1547" y="246" type="curve" smooth="yes"/>
			<point x="1547" y="106"/>
			<point x="1501" y="60"/>
		</contour>
	</outline>
</glyph>
<glyph name="dvPH_TTA" format="2">
	<advance width="1189"/>
	<anchor x="439" y="11" name="blwm"/>
	<anchor x="961" y="-90" name="blwm.u"/>
	<anchor x="442" y="606" name="abvm"/>
	<outline>
		<contour>
			<point x="835" y="320" type="curve"/>
			<point x="746" y="229" type="line"/>
			<point x="734" y="255"/>
			<point x="698" y="264"/>
			<point x="627" y="264" type="curve" smooth="yes"/>
			<point x="573" y="264"/>
			<point x="529" y="255"/>
			<point x="492" y="235" type="curve"/>
			<point x="504" y="368" type="line"/>
			<point x="506" y="368" type="line"/>
			<point x="536" y="383"/>
			<point x="592" y="393"/>
			<point x="649" y="393" type="curve" smooth="yes"/>
			<point x="751" y="393"/>
			<point x="808" y="373"/>
		</contour>
		<contour>
			<point x="50" y="315" type="curve" smooth="yes"/>
			<point x="50" y="505" type="line"/>
			<point x="198" y="505" type="line"/>
			<point x="198" y="297" type="line" smooth="yes"/>
			<point x="198" y="247"/>
			<point x="217" y="228"/>
			<point x="288" y="228" type="curve" smooth="yes"/>
			<point x="324" y="228"/>
			<point x="356" y="235"/>
			<point x="377" y="248" type="curve"/>
			<point x="388" y="127" type="line"/>
			<point x="380" y="122"/>
			<point x="373" y="125"/>
			<point x="361" y="122" type="curve"/>
			<point x="359" y="123" type="line"/>
			<point x="333" y="111"/>
			<point x="295" y="103"/>
			<point x="258" y="103" type="curve" smooth="yes"/>
			<point x="97" y="103"/>
			<point x="50" y="164"/>
		</contour>
		<contour>
			<point x="361" y="9" type="line"/>
			<point x="361" y="501" type="line"/>
			<point x="510" y="501" type="line"/>
			<point x="510" y="9" type="line"/>
		</contour>
		<contour>
			<point x="-50" y="500" type="line"/>
			<point x="-50" y="607" type="line"/>
			<point x="781" y="607" type="line"/>
			<point x="781" y="500" type="line"/>
		</contour>
		<contour>
			<point x="978" y="320" type="line"/>
			<point x="978" y="505" type="line"/>
			<point x="1116" y="505" type="line"/>
			<point x="1116" y="320" type="line"/>
		</contour>
		<contour>
			<point x="671" y="500" type="line"/>
			<point x="671" y="607" type="line"/>
			<point x="1229" y="607" type="line"/>
			<point x="1229" y="500" type="line"/>
		</contour>
		<contour>
			<point x="1154" y="145" type="curve"/>
			<point x="1156" y="144" type="line"/>
			<point x="1156" y="23" type="line"/>
			<point x="1102" y="8"/>
			<point x="1044" y="0"/>
			<point x="958" y="0" type="curve" smooth="yes"/>
			<point x="817" y="0"/>
			<point x="727" y="48"/>
			<point x="727" y="218" type="curve" smooth="yes"/>
			<point x="727" y="388"/>
			<point x="798" y="436"/>
			<point x="924" y="436" type="curve" smooth="yes"/>
			<point x="983" y="436"/>
			<point x="1087" y="434"/>
			<point x="1108" y="432" type="curve"/>
			<point x="1108" y="320" type="line"/>
			<point x="972" y="320" type="line" smooth="yes"/>
			<point x="896" y="320"/>
			<point x="871" y="302"/>
			<point x="871" y="220" type="curve" smooth="yes"/>
			<point x="871" y="137"/>
			<point x="901" y="128"/>
			<point x="993" y="128" type="curve" smooth="yes"/>
			<point x="1045" y="128"/>
			<point x="1110" y="133"/>
		</contour>
	</outline>
</glyph>
<glyph name="dvPHx_R" format="2">
	<advance width="696"/>
	<outline>
		<contour>
			<point x="198" y="-46" type="curve"/>
			<point x="200" y="-68"/>
			<point x="201" y="-83"/>
			<point x="201" y="-99" type="curve" smooth="yes"/>
			<point x="201" y="-115"/>
			<point x="200" y="-131"/>
			<point x="198" y="-152" type="curve"/>
			<point x="172" y="-157"/>
			<point x="147" y="-160"/>
			<point x="122" y="-160" type="curve" smooth="yes"/>
			<point x="98" y="-160"/>
			<point x="74" y="-157"/>
			<point x="49" y="-152" type="curve"/>
			<point x="46" y="-132"/>
			<point x="45" y="-116"/>
			<point x="45" y="-100" type="curve" smooth="yes"/>
			<point x="45" y="-85"/>
			<point x="46" y="-68"/>
			<point x="49" y="-46" type="curve"/>
			<point x="74" y="-41"/>
			<point x="99" y="-39"/>
			<point x="124" y="-39" type="curve" smooth="yes"/>
			<point x="148" y="-39"/>
			<point x="173" y="-41"/>
		</contour>
		<component base="dvPH_R"/>
	</outline>
</glyph>
<glyph name="dvP_TTA" format="2">
	<advance width="843"/>
	<anchor x="615" y="-90" name="blwm.u"/>
	<outline>
		<contour>
			<point x="632" y="320" type="line"/>
			<point x="632" y="505" type="line"/>
			<point x="770" y="505" type="line"/>
			<point x="770" y="320" type="line"/>
		</contour>
		<contour>
			<point x="325" y="500" type="line"/>
			<point x="325" y="607" type="line"/>
			<point x="883" y="607" type="line"/>
			<point x="883" y="500" type="line"/>
		</contour>
		<contour>
			<point x="808" y="145" type="curve"/>
			<point x="810" y="144" type="line"/>
			<point x="810" y="23" type="line"/>
			<point x="756" y="8"/>
			<point x="698" y="0"/>
			<point x="612" y="0" type="curve" smooth="yes"/>
			<point x="471" y="0"/>
			<point x="381" y="48"/>
			<point x="381" y="218" type="curve" smooth="yes"/>
			<point x="381" y="388"/>
			<point x="452" y="436"/>
			<point x="578" y="436" type="curve" smooth="yes"/>
			<point x="637" y="436"/>
			<point x="741" y="434"/>
			<point x="762" y="432" type="curve"/>
			<point x="762" y="320" type="line"/>
			<point x="626" y="320" type="line" smooth="yes"/>
			<point x="550" y="320"/>
			<point x="525" y="302"/>
			<point x="525" y="220" type="curve" smooth="yes"/>
			<point x="525" y="137"/>
			<point x="555" y="128"/>
			<point x="647" y="128" type="curve" smooth="yes"/>
			<point x="699" y="128"/>
			<point x="764" y="133"/>
		</contour>
		<component base="dvP"/>
	</outline>
</glyph>
<glyph name="dvReph_Anusvara.matrai" format="2">
	<advance width="0"/>
	<anchor x="0" y="608" name="_abvm.i"/>
	<outline>
		<contour>
			<point x="0" y="606" type="line"/>
			<point x="0" y="729" type="line" smooth="yes"/>
			<point x="0" y="815"/>
			<point x="47" y="854"/>
			<point x="131" y="854" type="curve" smooth="yes"/>
			<point x="150" y="854"/>
			<point x="174" y="851"/>
			<point x="194" y="846" type="curve"/>
			<point x="194" y="754" type="line"/>
			<point x="192" y="754" type="line"/>
			<point x="180" y="756"/>
			<point x="164" y="758"/>
			<point x="150" y="758" type="curve" smooth="yes"/>
			<point x="106" y="758"/>
			<point x="94" y="737"/>
			<point x="94" y="694" type="curve" smooth="yes"/>
			<point x="94" y="606" type="line"/>
		</contour>
		<contour>
			<point x="243" y="716" type="curve"/>
			<point x="246" y="697"/>
			<point x="247" y="685"/>
			<point x="247" y="673" type="curve" smooth="yes"/>
			<point x="247" y="660"/>
			<point x="246" y="647"/>
			<point x="243" y="630" type="curve"/>
			<point x="222" y="625"/>
			<point x="203" y="623"/>
			<point x="183" y="623" type="curve" smooth="yes"/>
			<point x="163" y="623"/>
			<point x="145" y="625"/>
			<point x="124" y="630" type="curve"/>
			<point x="121" y="645"/>
			<point x="120" y="659"/>
			<point x="120" y="672" type="curve" smooth="yes"/>
			<point x="120" y="684"/>
			<point x="121" y="697"/>
			<point x="124" y="716" type="curve"/>
			<point x="145" y="720"/>
			<point x="164" y="721"/>
			<point x="184" y="721" type="curve" smooth="yes"/>
			<point x="204" y="721"/>
			<point x="223" y="720"/>
		</contour>
	</outline>
</glyph>
<glyph name="dvS_DA" format="2">
	<advance width="973"/>
	<outline>
		<contour>
			<point x="781" y="321" type="line"/>
			<point x="781" y="501" type="line"/>
			<point x="913" y="501" type="line"/>
			<point x="913" y="321" type="line"/>
		</contour>
		<contour>
			<point x="362" y="500" type="line"/>
			<point x="362" y="607" type="line"/>
			<point x="1013" y="607" type="line"/>
			<point x="1013" y="500" type="line"/>
		</contour>
		<contour>
			<point x="448" y="253" type="curve" smooth="yes"/>
			<point x="448" y="388"/>
			<point x="509" y="435"/>
			<point x="668" y="435" type="curve" smooth="yes"/>
			<point x="755" y="435"/>
			<point x="863" y="434"/>
			<point x="893" y="431" type="curve"/>
			<point x="893" y="321" type="line"/>
			<point x="685" y="321" type="line" smooth="yes"/>
			<point x="603" y="321"/>
			<point x="584" y="306"/>
			<point x="584" y="247" type="curve" smooth="yes"/>
			<point x="584" y="189"/>
			<point x="604" y="179"/>
			<point x="696" y="179" type="curve" smooth="yes"/>
			<point x="781" y="179"/>
			<point x="802" y="191"/>
			<point x="802" y="218" type="curve" smooth="yes"/>
			<point x="802" y="250" type="line"/>
			<point x="918" y="250" type="line"/>
			<point x="918" y="9" type="line"/>
			<point x="774" y="9" type="line"/>
			<point x="774" y="49"/>
			<point x="777" y="68"/>
			<point x="784" y="87" type="curve"/>
			<point x="781" y="89" type="line"/>
			<point x="754" y="74"/>
			<point x="707" y="65"/>
			<point x="648" y="65" type="curve" smooth="yes"/>
			<point x="515" y="65"/>
			<point x="448" y="116"/>
		</contour>
		<component base="dvS"/>
	</outline>
</glyph>
<glyph name="dvS_PHA" format="2">
	<advance width="1318"/>
	<anchor x="788" y="-51" name="blwm.virama"/>
	<anchor x="935" y="607" name="abvm.bindu"/>
	<anchor x="870" y="-81" name="blwm.u"/>
	<anchor x="936" y="607" name="abvm.e"/>
	<outline>
		<contour>
			<point x="472" y="315" type="curve" smooth="yes"/>
			<point x="472" y="505" type="line"/>
			<point x="620" y="505" type="line"/>
			<point x="620" y="297" type="line" smooth="yes"/>
			<point x="620" y="247"/>
			<point x="639" y="228"/>
			<point x="710" y="228" type="curve" smooth="yes"/>
			<point x="746" y="228"/>
			<point x="778" y="235"/>
			<point x="799" y="248" type="curve"/>
			<point x="810" y="127" type="line"/>
			<point x="802" y="122"/>
			<point x="795" y="125"/>
			<point x="783" y="122" type="curve"/>
			<point x="781" y="123" type="line"/>
			<point x="755" y="111"/>
			<point x="717" y="103"/>
			<point x="680" y="103" type="curve" smooth="yes"/>
			<point x="519" y="103"/>
			<point x="472" y="164"/>
		</contour>
		<contour>
			<point x="783" y="9" type="line"/>
			<point x="783" y="501" type="line"/>
			<point x="932" y="501" type="line"/>
			<point x="932" y="9" type="line"/>
		</contour>
		<contour>
			<point x="372" y="500" type="line"/>
			<point x="372" y="607" type="line"/>
			<point x="1363" y="607" type="line"/>
			<point x="1363" y="500" type="line"/>
		</contour>
		<contour>
			<point x="1125" y="60" type="curve" smooth="yes"/>
			<point x="1078" y="60"/>
			<point x="1027" y="66"/>
			<point x="990" y="77" type="curve"/>
			<point x="992" y="191" type="line"/>
			<point x="996" y="192" type="line"/>
			<point x="1019" y="186"/>
			<point x="1046" y="181"/>
			<point x="1082" y="181" type="curve" smooth="yes"/>
			<point x="1144" y="181"/>
			<point x="1158" y="198"/>
			<point x="1158" y="248" type="curve" smooth="yes"/>
			<point x="1158" y="298"/>
			<point x="1144" y="315"/>
			<point x="1055" y="315" type="curve" smooth="yes"/>
			<point x="1001" y="315"/>
			<point x="957" y="306"/>
			<point x="920" y="286" type="curve"/>
			<point x="932" y="409" type="line"/>
			<point x="934" y="409" type="line"/>
			<point x="964" y="424"/>
			<point x="1020" y="434"/>
			<point x="1077" y="434" type="curve"/>
			<point x="1242" y="434"/>
			<point x="1293" y="388"/>
			<point x="1293" y="246" type="curve" smooth="yes"/>
			<point x="1293" y="106"/>
			<point x="1247" y="60"/>
		</contour>
		<component base="dvS"/>
	</outline>
</glyph>
<glyph name="dvS_R" format="2">
	<advance width="447"/>
	<outline>
		<contour>
			<point x="56" y="270" type="curve"/>
			<point x="4" y="231" type="line"/>
			<point x="4" y="347" type="line"/>
			<point x="56" y="347" type="line"/>
			<point x="124" y="347"/>
			<point x="138" y="375"/>
			<point x="138" y="422" type="curve" smooth="yes"/>
			<point x="138" y="573" type="line"/>
			<point x="286" y="572" type="line"/>
			<point x="286" y="422" type="line" smooth="yes"/>
			<point x="286" y="376"/>
			<point x="263" y="349"/>
			<point x="202" y="324" type="curve"/>
			<point x="194" y="245"/>
			<point x="118" y="239"/>
		</contour>
		<contour>
			<point x="132" y="9" type="line"/>
			<point x="4" y="231" type="line"/>
			<point x="4" y="268" type="line"/>
			<point x="103" y="276" type="line"/>
			<point x="123" y="263"/>
			<point x="127" y="252"/>
			<point x="147" y="235" type="curve"/>
			<point x="147" y="231" type="line"/>
			<point x="194" y="177"/>
			<point x="262" y="78"/>
			<point x="304" y="11" type="curve"/>
			<point x="304" y="9" type="line"/>
		</contour>
		<contour>
			<point x="127" y="235" type="line"/>
			<point x="127" y="349" type="line"/>
			<point x="539" y="349" type="line"/>
			<point x="539" y="253" type="line"/>
			<point x="524" y="235" type="line"/>
		</contour>
		<contour>
			<point x="-55" y="500" type="line"/>
			<point x="-55" y="607" type="line"/>
			<point x="539" y="607" type="line"/>
			<point x="539" y="500" type="line"/>
		</contour>
		<contour>
			<point x="277" y="118" type="line"/>
			<point x="277" y="122" type="line"/>
			<point x="325" y="167"/>
			<point x="366" y="200"/>
			<point x="415" y="233" type="curve"/>
			<point x="415" y="235" type="line"/>
			<point x="433" y="253" type="line"/>
			<point x="539" y="253" type="line"/>
			<point x="398" y="78" type="line"/>
		</contour>
	</outline>
</glyph>
<glyph name="dvTTH" format="2">
	<advance width="616"/>
	<outline>
		<contour>
			<point x="237" y="-52" type="line"/>
			<point x="237" y="-47" type="line"/>
			<point x="375" y="-47" type="line"/>
			<point x="438" y="-83"/>
			<point x="498" y="-125"/>
			<point x="551" y="-176" type="curve"/>
			<point x="551" y="-181" type="line"/>
			<point x="411" y="-218" type="line"/>
		</contour>
		<component base="dvTTHA"/>
	</outline>
</glyph>
<glyph name="dvTT_TTHA" format="2">
	<advance width="564"/>
	<anchor x="226" y="-372" name="blwm.virama"/>
	<anchor x="493" y="607" name="abvm.bindu"/>
	<anchor x="306" y="-407" name="blwm.u"/>
	<anchor x="491" y="607" name="abvm.e"/>
	<outline>
		<contour>
			<point x="356" y="320" type="line"/>
			<point x="356" y="525" type="line"/>
			<point x="494" y="525" type="line"/>
			<point x="494" y="320" type="line"/>
		</contour>
		<contour>
			<point x="-30" y="500" type="line"/>
			<point x="-30" y="607" type="line"/>
			<point x="594" y="607" type="line"/>
			<point x="594" y="500" type="line"/>
		</contour>
		<contour>
			<point x="512" y="235" type="curve"/>
			<point x="514" y="234" type="line"/>
			<point x="514" y="118" type="line"/>
			<point x="460" y="103"/>
			<point x="402" y="95"/>
			<point x="316" y="95" type="curve" smooth="yes"/>
			<point x="126" y="95"/>
			<point x="35" y="135"/>
			<point x="35" y="265" type="curve" smooth="yes"/>
			<point x="35" y="395"/>
			<point x="99" y="436"/>
			<point x="282" y="436" type="curve" smooth="yes"/>
			<point x="341" y="436"/>
			<point x="465" y="434"/>
			<point x="486" y="432" type="curve"/>
			<point x="486" y="320" type="line"/>
			<point x="330" y="320" type="line" smooth="yes"/>
			<point x="204" y="320"/>
			<point x="179" y="311"/>
			<point x="179" y="269" type="curve" smooth="yes"/>
			<point x="179" y="227"/>
			<point x="211" y="218"/>
			<point x="341" y="218" type="curve" smooth="yes"/>
			<point x="393" y="218"/>
			<point x="468" y="223"/>
		</contour>
		<contour>
			<point x="231" y="-4" type="line"/>
			<point x="231" y="128" type="line"/>
			<point x="363" y="128" type="line"/>
			<point x="363" y="-4" type="line"/>
		</contour>
		<contour>
			<point x="29" y="-141" type="curve" smooth="yes"/>
			<point x="29" y="6"/>
			<point x="103" y="35"/>
			<point x="297" y="35" type="curve" smooth="yes"/>
			<point x="491" y="35"/>
			<point x="565" y="6"/>
			<point x="565" y="-141" type="curve" smooth="yes"/>
			<point x="565" y="-268"/>
			<point x="501" y="-317"/>
			<point x="297" y="-317" type="curve" smooth="yes"/>
			<point x="93" y="-317"/>
			<point x="29" y="-268"/>
		</contour>
		<contour>
			<point x="157" y="-136" type="curve" smooth="yes"/>
			<point x="157" y="-183"/>
			<point x="183" y="-200"/>
			<point x="297" y="-200" type="curve" smooth="yes"/>
			<point x="411" y="-200"/>
			<point x="437" y="-183"/>
			<point x="437" y="-136" type="curve" smooth="yes"/>
			<point x="437" y="-84"/>
			<point x="411" y="-72"/>
			<point x="297" y="-72" type="curve" smooth="yes"/>
			<point x="183" y="-72"/>
			<point x="157" y="-84"/>
		</contour>
	</outline>
</glyph>
<glyph name="dvT_KA" format="2">
	<advance width="1268"/>
	<anchor x="734" y="-51" name="blwm.virama"/>
	<anchor x="881" y="607" name="abvm.bindu"/>
	<anchor x="816" y="-81" name="blwm.u"/>
	<anchor x="882" y="607" name="abvm.e"/>
	<outline>
		<contour>
			<point x="734" y="9" type="line"/>
			<point x="734" y="501" type="line"/>
			<point x="882" y="501" type="line"/>
			<point x="882" y="9" type="line"/>
		</contour>
		<contour>
			<point x="303" y="500" type="line"/>
			<point x="303" y="607" type="line"/>
			<point x="1293" y="607" type="line"/>
			<point x="1293" y="500" type="line"/>
		</contour>
		<contour>
			<point x="541" y="436" type="curve" smooth="yes"/>
			<point x="588" y="436"/>
			<point x="639" y="430"/>
			<point x="676" y="419" type="curve"/>
			<point x="674" y="305" type="line"/>
			<point x="670" y="304" type="line"/>
			<point x="647" y="310"/>
			<point x="620" y="315"/>
			<point x="584" y="315" type="curve" smooth="yes"/>
			<point x="522" y="315"/>
			<point x="508" y="298"/>
			<point x="508" y="248" type="curve" smooth="yes"/>
			<point x="508" y="198"/>
			<point x="522" y="181"/>
			<point x="611" y="181" type="curve" smooth="yes"/>
			<point x="665" y="181"/>
			<point x="709" y="190"/>
			<point x="746" y="210" type="curve"/>
			<point x="734" y="87" type="line"/>
			<point x="732" y="87" type="line"/>
			<point x="702" y="72"/>
			<point x="646" y="62"/>
			<point x="589" y="62" type="curve" smooth="yes"/>
			<point x="419" y="62"/>
			<point x="368" y="108"/>
			<point x="368" y="250" type="curve" smooth="yes"/>
			<point x="368" y="390"/>
			<point x="414" y="436"/>
		</contour>
		<contour>
			<point x="1075" y="60" type="curve" smooth="yes"/>
			<point x="1028" y="60"/>
			<point x="977" y="66"/>
			<point x="940" y="77" type="curve"/>
			<point x="942" y="191" type="line"/>
			<point x="946" y="192" type="line"/>
			<point x="969" y="186"/>
			<point x="996" y="181"/>
			<point x="1032" y="181" type="curve" smooth="yes"/>
			<point x="1094" y="181"/>
			<point x="1108" y="198"/>
			<point x="1108" y="248" type="curve" smooth="yes"/>
			<point x="1108" y="298"/>
			<point x="1094" y="315"/>
			<point x="1005" y="315" type="curve" smooth="yes"/>
			<point x="951" y="315"/>
			<point x="907" y="306"/>
			<point x="870" y="286" type="curve"/>
			<point x="882" y="409" type="line"/>
			<point x="884" y="409" type="line"/>
			<point x="914" y="424"/>
			<point x="970" y="434"/>
			<point x="1027" y="434" type="curve" smooth="yes"/>
			<point x="1197" y="434"/>
			<point x="1248" y="388"/>
			<point x="1248" y="246" type="curve" smooth="yes"/>
			<point x="1248" y="106"/>
			<point x="1202" y="60"/>
		</contour>
		<component base="dvT"/>
	</outline>
</glyph>
<glyph name="dvV_LA" format="2">
	<advance width="1175"/>
	<outline>
		<contour>
			<point x="-10" y="500" type="line"/>
			<point x="-10" y="607" type="line"/>
			<point x="521" y="607" type="line"/>
			<point x="521" y="500" type="line"/>
		</contour>
		<contour>
			<point x="257" y="53" type="curve" smooth="yes"/>
			<point x="69" y="53"/>
			<point x="25" y="109"/>
			<point x="25" y="249" type="curve" smooth="yes"/>
			<point x="25" y="383"/>
			<point x="78" y="439"/>
			<point x="213" y="439" type="curve" smooth="yes"/>
			<point x="263" y="439"/>
			<point x="306" y="433"/>
			<point x="345" y="423" type="curve"/>
			<point x="345" y="305" type="line"/>
			<point x="341" y="304" type="line"/>
			<point x="318" y="309"/>
			<point x="289" y="312"/>
			<point x="258" y="312" type="curve" smooth="yes"/>
			<point x="195" y="312"/>
			<point x="175" y="300"/>
			<point x="175" y="245" type="curve" smooth="yes"/>
			<point x="175" y="188"/>
			<point x="195" y="176"/>
			<point x="286" y="176" type="curve" smooth="yes"/>
			<point x="360" y="176"/>
			<point x="425" y="194"/>
			<point x="461" y="223" type="curve"/>
			<point x="559" y="128" type="line"/>
			<point x="469" y="80"/>
			<point x="375" y="53"/>
		</contour>
		<component base="dvLA" xOffset="381"/>
	</outline>
</glyph>
<glyph name="dvV_R" format="2">
	<advance width="381"/>
	<outline>
		<contour>
			<point x="168" y="-31" type="curve"/>
			<point x="168" y="-35" type="line"/>
			<point x="333" y="-35" type="line"/>
			<point x="490" y="126" type="line"/>
			<point x="472" y="142" type="line"/>
			<point x="318" y="134" type="line"/>
			<point x="277" y="81" type="line"/>
			<point x="277" y="78" type="line"/>
			<point x="242" y="53"/>
			<point x="200" y="10"/>
		</contour>
		<contour>
			<point x="-10" y="500" type="line"/>
			<point x="456" y="500" type="line"/>
			<point x="456" y="607" type="line"/>
			<point x="-10" y="607" type="line"/>
		</contour>
		<contour>
			<point x="490" y="126" type="curve"/>
			<point x="490" y="236" type="line"/>
			<point x="486" y="236" type="line"/>
			<point x="436" y="203"/>
			<point x="374" y="189"/>
			<point x="286" y="189" type="curve" smooth="yes"/>
			<point x="205" y="189"/>
			<point x="175" y="206"/>
			<point x="175" y="249" type="curve" smooth="yes"/>
			<point x="175" y="306"/>
			<point x="195" y="318"/>
			<point x="258" y="318" type="curve" smooth="yes"/>
			<point x="289" y="318"/>
			<point x="318" y="315"/>
			<point x="341" y="310" type="curve"/>
			<point x="345" y="311" type="line"/>
			<point x="345" y="427" type="line"/>
			<point x="306" y="437"/>
			<point x="263" y="443"/>
			<point x="213" y="443" type="curve" smooth="yes"/>
			<point x="78" y="443"/>
			<point x="25" y="389"/>
			<point x="25" y="255" type="curve" smooth="yes"/>
			<point x="25" y="140"/>
			<point x="69" y="80"/>
			<point x="247" y="80" type="curve" smooth="yes"/>
			<point x="369" y="80"/>
			<point x="431" y="95"/>
		</contour>
	</outline>
</glyph>
<glyph name="dvmI.01" format="2">
	<advance width="268"/>
	<anchor x="633" y="650" name="abvm.i"/>
	<outline>
		<contour>
			<point x="65" y="9" type="line"/>
			<point x="65" y="501" type="line"/>
			<point x="213" y="501" type="line"/>
			<point x="213" y="9" type="line"/>
		</contour>
		<contour>
			<point x="-35" y="500" type="line"/>
			<point x="-35" y="607" type="line"/>
			<point x="313" y="607" type="line"/>
			<point x="313" y="500" type="line"/>
		</contour>
		<contour>
			<point x="213" y="624" type="curve"/>
			<point x="213" y="607" type="line"/>
			<point x="65" y="607" type="line"/>
			<point x="65" y="778"/>
			<point x="140" y="822"/>
			<point x="326" y="822" type="curve"/>
			<point x="367" y="822" type="line"/>
			<point x="527" y="822"/>
			<point x="628" y="798"/>
			<point x="628" y="650" type="curve"/>
			<point x="480" y="650" type="line"/>
			<point x="480" y="688"/>
			<point x="458" y="701"/>
			<point x="382" y="701" type="curve"/>
			<point x="326" y="701" type="line"/>
			<point x="253" y="701"/>
			<point x="213" y="691"/>
		</contour>
	</outline>
</glyph>
<glyph name="dvmI.10" format="2">
	<advance width="268"/>
	<anchor x="959" y="652" name="abvm.i"/>
	<outline>
		<contour>
			<point x="60" y="9" type="line"/>
			<point x="60" y="501" type="line"/>
			<point x="208" y="501" type="line"/>
			<point x="208" y="9" type="line"/>
		</contour>
		<contour>
			<point x="-40" y="500" type="line"/>
			<point x="-40" y="607" type="line"/>
			<point x="308" y="607" type="line"/>
			<point x="308" y="500" type="line"/>
		</contour>
		<contour>
			<point x="208" y="624" type="curve"/>
			<point x="208" y="607" type="line"/>
			<point x="60" y="607" type="line"/>
			<point x="60" y="784"/>
			<point x="143" y="822"/>
			<point x="340" y="822" type="curve"/>
			<point x="675" y="822" type="line"/>
			<point x="850" y="822"/>
			<point x="955" y="798"/>
			<point x="955" y="650" type="curve"/>
			<point x="807" y="650" type="line"/>
			<point x="807" y="689"/>
			<point x="777" y="701"/>
			<point x="687" y="701" type="curve"/>
			<point x="340" y="701" type="line"/>
			<point x="253" y="701"/>
			<point x="208" y="691"/>
		</contour>
	</outline>
</glyph>
<glyph name="dvmI.16" format="2">
	<advance width="268"/>
	<anchor x="1188" y="652" name="abvm.i"/>
	<outline>
		<contour>
			<point x="60" y="9" type="line"/>
			<point x="60" y="501" type="line"/>
			<point x="208" y="501" type="line"/>
			<point x="208" y="9" type="line"/>
		</contour>
		<contour>
			<point x="-40" y="500" type="line"/>
			<point x="-40" y="607" type="line"/>
			<point x="308" y="607" type="line"/>
			<point x="308" y="500" type="line"/>
		</contour>
		<contour>
			<point x="208" y="624" type="curve"/>
			<point x="208" y="607" type="line"/>
			<point x="60" y="607" type="line"/>
			<point x="60" y="787"/>
			<point x="148" y="822"/>
			<point x="353" y="822" type="curve"/>
			<point x="883" y="822" type="line"/>
			<point x="1069" y="822"/>
			<point x="1176" y="798"/>
			<point x="1176" y="650" type="curve"/>
			<point x="1028" y="650" type="line"/>
			<point x="1028" y="689"/>
			<point x="992" y="701"/>
			<point x="893" y="701" type="curve"/>
			<point x="353" y="701" type="line"/>
			<point x="257" y="701"/>
			<point x="208" y="691"/>
		</contour>
	</outline>
</glyph>
<glyph name="dvmI.19" format="2">
	<advance width="268"/>
	<anchor x="1297" y="650" name="abvm.i"/>
	<outline>
		<contour>
			<point x="60" y="9" type="line"/>
			<point x="60" y="501" type="line"/>
			<point x="208" y="501" type="line"/>
			<point x="208" y="9" type="line"/>
		</contour>
		<contour>
			<point x="-40" y="500" type="line"/>
			<point x="-40" y="607" type="line"/>
			<point x="308" y="607" type="line"/>
			<point x="308" y="500" type="line"/>
		</contour>
		<contour>
			<point x="208" y="622" type="curve"/>
			<point x="208" y="605" type="line"/>
			<point x="60" y="605" type="line"/>
			<point x="60" y="787"/>
			<point x="150" y="820"/>
			<point x="360" y="820" type="curve"/>
			<point x="987" y="820" type="line"/>
			<point x="1178" y="820"/>
			<point x="1287" y="796"/>
			<point x="1287" y="648" type="curve"/>
			<point x="1139" y="648" type="line"/>
			<point x="1139" y="687"/>
			<point x="1100" y="699"/>
			<point x="997" y="699" type="curve"/>
			<point x="360" y="699" type="line"/>
			<point x="258" y="699"/>
			<point x="208" y="689"/>
		</contour>
	</outline>
</glyph>
<glyph name="dvmI.26" format="2">
	<advance width="268"/>
	<anchor x="1551" y="651" name="abvm.i"/>
	<outline>
		<contour>
			<point x="60" y="9" type="line"/>
			<point x="60" y="501" type="line"/>
			<point x="208" y="501" type="line"/>
			<point x="208" y="9" type="line"/>
		</contour>
		<contour>
			<point x="-40" y="500" type="line"/>
			<point x="-40" y="607" type="line"/>
			<point x="308" y="607" type="line"/>
			<point x="308" y="500" type="line"/>
		</contour>
		<contour>
			<point x="208" y="623" type="curve"/>
			<point x="208" y="606" type="line"/>
			<point x="60" y="606" type="line"/>
			<point x="60" y="792"/>
			<point x="156" y="821"/>
			<point x="375" y="821" type="curve"/>
			<point x="1230" y="821" type="line"/>
			<point x="1434" y="821"/>
			<point x="1545" y="797"/>
			<point x="1545" y="649" type="curve"/>
			<point x="1397" y="649" type="line"/>
			<point x="1397" y="689"/>
			<point x="1352" y="700"/>
			<point x="1238" y="700" type="curve"/>
			<point x="375" y="700" type="line"/>
			<point x="262" y="700"/>
			<point x="208" y="690"/>
		</contour>
	</outline>
</glyph>
<glyph name="dvmI.27" format="2">
	<advance width="268"/>
	<anchor x="1587" y="652" name="abvm.i"/>
	<outline>
		<contour>
			<point x="60" y="9" type="line"/>
			<point x="60" y="501" type="line"/>
			<point x="208" y="501" type="line"/>
			<point x="208" y="9" type="line"/>
		</contour>
		<contour>
			<point x="-40" y="500" type="line"/>
			<point x="-40" y="607" type="line"/>
			<point x="308" y="607" type="line"/>
			<point x="308" y="500" type="line"/>
		</contour>
		<contour>
			<point x="208" y="624" type="curve"/>
			<point x="208" y="607" type="line"/>
			<point x="60" y="607" type="line"/>
			<point x="60" y="794"/>
			<point x="157" y="822"/>
			<point x="377" y="822" type="curve"/>
			<point x="1265" y="822" type="line"/>
			<point x="1470" y="822"/>
			<point x="1582" y="798"/>
			<point x="1582" y="650" type="curve"/>
			<point x="1434" y="650" type="line"/>
			<point x="1434" y="690"/>
			<point x="1388" y="701"/>
			<point x="1272" y="701" type="curve"/>
			<point x="377" y="701" type="line"/>
			<point x="263" y="701"/>
			<point x="208" y="691"/>
		</contour>
	</outline>
</glyph>
<glyph name="dvmI.33" format="2">
	<advance width="268"/>
	<anchor x="1808" y="652" name="abvm.i"/>
	<outline>
		<contour>
			<point x="60" y="9" type="line"/>
			<point x="60" y="501" type="line"/>
			<point x="208" y="501" type="line"/>
			<point x="208" y="9" type="line"/>
		</contour>
		<contour>
			<point x="-40" y="500" type="line"/>
			<point x="-40" y="607" type="line"/>
			<point x="308" y="607" type="line"/>
			<point x="308" y="500" type="line"/>
		</contour>
		<contour>
			<point x="208" y="624" type="curve"/>
			<point x="208" y="607" type="line"/>
			<point x="60" y="607" type="line"/>
			<point x="60" y="798"/>
			<point x="162" y="822"/>
			<point x="390" y="822" type="curve"/>
			<point x="1474" y="822" type="line"/>
			<point x="1689" y="822"/>
			<point x="1803" y="798"/>
			<point x="1803" y="650" type="curve"/>
			<point x="1655" y="650" type="line"/>
			<point x="1655" y="691"/>
			<point x="1604" y="701"/>
			<point x="1479" y="701" type="curve"/>
			<point x="390" y="701" type="line"/>
			<point x="266" y="701"/>
			<point x="208" y="691"/>
		</contour>
	</outline>
</glyph>
<glyph name="dvmII.002" format="2">
	<advance width="277"/>
	<outline>
		<contour>
			<point x="69" y="9" type="line"/>
			<point x="69" y="501" type="line"/>
			<point x="217" y="501" type="line"/>
			<point x="217" y="9" type="line"/>
		</contour>
		<contour>
			<point x="-103" y="652" type="curve"/>
			<point x="-103" y="650" type="line"/>
			<point x="-243" y="651" type="line"/>
			<point x="-245" y="655"/>
			<point x="-246" y="662"/>
			<point x="-246" y="667" type="curve" smooth="yes"/>
			<point x="-246" y="777"/>
			<point x="-196" y="829"/>
			<point x="-21" y="829" type="curve" smooth="yes"/>
			<point x="154" y="829"/>
			<point x="211" y="770"/>
			<point x="211" y="607" type="curve"/>
			<point x="78" y="607" type="line"/>
			<point x="78" y="620" type="line"/>
			<point x="78" y="702"/>
			<point x="67" y="721"/>
			<point x="-13" y="721" type="curve" smooth="yes"/>
			<point x="-93" y="721"/>
			<point x="-104" y="701"/>
			<point x="-104" y="669" type="curve" smooth="yes"/>
			<point x="-104" y="665"/>
			<point x="-104" y="657"/>
		</contour>
		<contour>
			<point x="-40" y="500" type="line"/>
			<point x="-40" y="607" type="line"/>
			<point x="317" y="607" type="line"/>
			<point x="317" y="500" type="line"/>
		</contour>
	</outline>
</glyph>
<glyph name="dvmII_Anusvara.004" format="2">
	<advance width="277"/>
	<outline>
		<contour>
			<point x="404" y="764" type="curve"/>
			<point x="406" y="742"/>
			<point x="407" y="727"/>
			<point x="407" y="711" type="curve" smooth="yes"/>
			<point x="407" y="695"/>
			<point x="406" y="679"/>
			<point x="404" y="657" type="curve"/>
			<point x="378" y="652"/>
			<point x="353" y="649"/>
			<point x="328" y="649" type="curve" smooth="yes"/>
			<point x="304" y="649"/>
			<point x="280" y="652"/>
			<point x="255" y="657" type="curve"/>
			<point x="252" y="678"/>
			<point x="251" y="694"/>
			<point x="251" y="710" type="curve" smooth="yes"/>
			<point x="251" y="725"/>
			<point x="252" y="742"/>
			<point x="255" y="764" type="curve"/>
			<point x="280" y="769"/>
			<point x="305" y="771"/>
			<point x="330" y="771" type="curve" smooth="yes"/>
			<point x="354" y="771"/>
			<point x="379" y="769"/>
		</contour>
		<contour>
			<point x="69" y="9" type="line"/>
			<point x="69" y="501" type="line"/>
			<point x="217" y="501" type="line"/>
			<point x="217" y="9" type="line"/>
		</contour>
		<contour>
			<point x="-40" y="500" type="line"/>
			<point x="-40" y="607" type="line"/>
			<point x="317" y="607" type="line"/>
			<point x="317" y="500" type="line"/>
		</contour>
		<contour>
			<point x="217" y="607" type="curve"/>
			<point x="69" y="607" type="line"/>
			<point x="69" y="624" type="line"/>
			<point x="69" y="691"/>
			<point x="26" y="701"/>
			<point x="-55" y="701" type="curve"/>
			<point x="-108" y="701" type="line"/>
			<point x="-191" y="701"/>
			<point x="-218" y="688"/>
			<point x="-218" y="650" type="curve"/>
			<point x="-366" y="650" type="line"/>
			<point x="-366" y="798"/>
			<point x="-263" y="822"/>
			<point x="-94" y="822" type="curve"/>
			<point x="-55" y="822" type="line"/>
			<point x="137" y="822"/>
			<point x="217" y="781"/>
		</contour>
	</outline>
</glyph>
<glyph name="dvmII_Reph.004" format="2">
	<advance width="274"/>
	<outline>
		<contour>
			<point x="66" y="9" type="line"/>
			<point x="66" y="501" type="line"/>
			<point x="214" y="501" type="line"/>
			<point x="214" y="9" type="line"/>
		</contour>
		<contour>
			<point x="-43" y="500" type="line"/>
			<point x="-43" y="607" type="line"/>
			<point x="364" y="607" type="line"/>
			<point x="364" y="500" type="line"/>
		</contour>
		<contour>
			<point x="220" y="589" type="line"/>
			<point x="220" y="715" type="line" smooth="yes"/>
			<point x="220" y="801"/>
			<point x="267" y="836"/>
			<point x="351" y="836" type="curve" smooth="yes"/>
			<point x="370" y="836"/>
			<point x="394" y="833"/>
			<point x="414" y="828" type="curve"/>
			<point x="414" y="736" type="line"/>
			<point x="412" y="736" type="line"/>
			<point x="400" y="738"/>
			<point x="384" y="740"/>
			<point x="370" y="740" type="curve" smooth="yes"/>
			<point x="326" y="740"/>
			<point x="314" y="719"/>
			<point x="314" y="676" type="curve" smooth="yes"/>
			<point x="314" y="589" type="line"/>
		</contour>
		<contour>
			<point x="217" y="607" type="curve"/>
			<point x="69" y="607" type="line"/>
			<point x="69" y="624" type="line"/>
			<point x="69" y="691"/>
			<point x="26" y="701"/>
			<point x="-55" y="701" type="curve"/>
			<point x="-108" y="701" type="line"/>
			<point x="-191" y="701"/>
			<point x="-218" y="688"/>
			<point x="-218" y="650" type="curve"/>
			<point x="-366" y="650" type="line"/>
			<point x="-366" y="798"/>
			<point x="-263" y="822"/>
			<point x="-94" y="822" type="curve"/>
			<point x="-55" y="822" type="line"/>
			<point x="137" y="822"/>
			<point x="217" y="781"/>
		</contour>
	</outline>
</glyph>
<glyph name="dvmII_Reph_Anusvara.003" format="2">
	<advance width="271"/>
	<outline>
		<contour>
			<point x="63" y="9" type="line"/>
			<point x="63" y="501" type="line"/>
			<point x="211" y="501" type="line"/>
			<point x="211" y="9" type="line"/>
		</contour>
		<contour>
			<point x="-46" y="500" type="line"/>
			<point x="-46" y="607" type="line"/>
			<point x="361" y="607" type="line"/>
			<point x="361" y="500" type="line"/>
		</contour>
		<contour>
			<point x="217" y="607" type="line"/>
			<point x="217" y="733" type="line" smooth="yes"/>
			<point x="217" y="819"/>
			<point x="264" y="854"/>
			<point x="348" y="854" type="curve" smooth="yes"/>
			<point x="367" y="854"/>
			<point x="391" y="851"/>
			<point x="411" y="846" type="curve"/>
			<point x="411" y="754" type="line"/>
			<point x="409" y="754" type="line"/>
			<point x="397" y="756"/>
			<point x="381" y="758"/>
			<point x="367" y="758" type="curve" smooth="yes"/>
			<point x="323" y="758"/>
			<point x="311" y="737"/>
			<point x="311" y="694" type="curve" smooth="yes"/>
			<point x="311" y="607" type="line"/>
		</contour>
		<contour>
			<point x="460" y="717" type="curve"/>
			<point x="462" y="699"/>
			<point x="464" y="687"/>
			<point x="464" y="675" type="curve" smooth="yes"/>
			<point x="464" y="663"/>
			<point x="462" y="649"/>
			<point x="460" y="632" type="curve"/>
			<point x="440" y="627"/>
			<point x="420" y="625"/>
			<point x="400" y="625" type="curve" smooth="yes"/>
			<point x="380" y="625"/>
			<point x="361" y="627"/>
			<point x="341" y="632" type="curve"/>
			<point x="339" y="648"/>
			<point x="337" y="661"/>
			<point x="337" y="674" type="curve" smooth="yes"/>
			<point x="337" y="685"/>
			<point x="339" y="699"/>
			<point x="341" y="717" type="curve"/>
			<point x="361" y="722"/>
			<point x="381" y="723"/>
			<point x="401" y="723" type="curve" smooth="yes"/>
			<point x="421" y="723"/>
			<point x="441" y="722"/>
		</contour>
		<contour>
			<point x="-153" y="652" type="curve"/>
			<point x="-153" y="650" type="line"/>
			<point x="-293" y="651" type="line"/>
			<point x="-295" y="655"/>
			<point x="-296" y="662"/>
			<point x="-296" y="667" type="curve" smooth="yes"/>
			<point x="-296" y="777"/>
			<point x="-246" y="829"/>
			<point x="-46" y="829" type="curve" smooth="yes"/>
			<point x="154" y="829"/>
			<point x="211" y="770"/>
			<point x="211" y="607" type="curve"/>
			<point x="78" y="607" type="line"/>
			<point x="78" y="620" type="line"/>
			<point x="78" y="702"/>
			<point x="67" y="721"/>
			<point x="-38" y="721" type="curve" smooth="yes"/>
			<point x="-143" y="721"/>
			<point x="-154" y="701"/>
			<point x="-154" y="669" type="curve" smooth="yes"/>
			<point x="-154" y="665"/>
			<point x="-154" y="657"/>
		</contour>
	</outline>
</glyph>
<glyph name="dvmOcandra_Anusvara" format="2">
	<advance width="342"/>
	<outline>
		<contour>
			<point x="254" y="963" type="curve"/>
			<point x="256" y="941"/>
			<point x="257" y="926"/>
			<point x="257" y="910" type="curve" smooth="yes"/>
			<point x="257" y="894"/>
			<point x="256" y="878"/>
			<point x="254" y="857" type="curve"/>
			<point x="228" y="852"/>
			<point x="203" y="849"/>
			<point x="178" y="849" type="curve" smooth="yes"/>
			<point x="154" y="849"/>
			<point x="130" y="852"/>
			<point x="105" y="857" type="curve"/>
			<point x="102" y="877"/>
			<point x="101" y="893"/>
			<point x="101" y="909" type="curve" smooth="yes"/>
			<point x="101" y="924"/>
			<point x="102" y="941"/>
			<point x="105" y="963" type="curve"/>
			<point x="130" y="968"/>
			<point x="155" y="970"/>
			<point x="180" y="970" type="curve" smooth="yes"/>
			<point x="204" y="970"/>
			<point x="229" y="968"/>
		</contour>
		<contour>
			<point x="280" y="837" type="curve"/>
			<point x="409" y="837" type="line"/>
			<point x="409" y="704"/>
			<point x="356" y="674"/>
			<point x="180" y="674" type="curve" smooth="yes"/>
			<point x="-7" y="674"/>
			<point x="-53" y="704"/>
			<point x="-53" y="837" type="curve"/>
			<point x="77" y="837" type="line"/>
			<point x="77" y="789"/>
			<point x="105" y="781"/>
			<point x="180" y="780" type="curve" smooth="yes"/>
			<point x="255" y="779"/>
			<point x="280" y="789"/>
		</contour>
		<contour>
			<point x="111" y="9" type="line"/>
			<point x="111" y="501" type="line"/>
			<point x="259" y="501" type="line"/>
			<point x="259" y="9" type="line"/>
		</contour>
		<contour>
			<point x="11" y="500" type="line"/>
			<point x="11" y="607" type="line"/>
			<point x="359" y="607" type="line"/>
			<point x="359" y="500" type="line"/>
		</contour>
	</outline>
</glyph>
